<svg width="93" height="67" viewBox="0 0 93 67" fill="none" xmlns="http://www.w3.org/2000/svg">
<path d="M1.49403 11.7672C1.49403 6.51914 5.74844 2.26472 10.9965 2.26472H81.5864C86.8344 2.26472 91.0889 6.51913 91.0889 11.7672V55.9828C91.0889 61.2309 86.8344 65.4853 81.5864 65.4853H10.9965C5.74844 65.4853 1.49403 61.2309 1.49403 55.9828V11.7672Z" fill="white"/>
<path d="M1.49403 11.7672C1.49403 6.51914 5.74844 2.26472 10.9965 2.26472H81.5864C86.8344 2.26472 91.0889 6.51913 91.0889 11.7672V55.9828C91.0889 61.2309 86.8344 65.4853 81.5864 65.4853H10.9965C5.74844 65.4853 1.49403 61.2309 1.49403 55.9828V11.7672Z" stroke="#E4E7EC" stroke-width="2.71499"/>
<path d="M24.2446 25.0789H11.3265C9.64422 25.0789 8.28149 26.4705 8.28149 28.1856V41.3682C8.28149 43.0833 9.64422 44.4749 11.3265 44.4749H24.2446C25.9269 44.4749 27.2878 43.0833 27.2878 41.3682V28.1856C27.2896 26.4687 25.9269 25.0789 24.2446 25.0789Z" fill="#1677FF"/>
<path d="M23.9302 37.2586C23.1707 36.9988 22.1491 36.6009 21.0126 36.1813C21.6949 34.9695 22.2407 33.5905 22.5998 32.0917H18.8528V30.7145H23.4418V29.946H18.8528V27.6496H16.9801C16.6516 27.6496 16.6516 27.9803 16.6516 27.9803V29.9442H12.0104V30.7127H16.6516V32.0898H12.8184V32.8583H20.2514C19.9803 33.814 19.614 34.7133 19.1813 35.529C16.7701 34.7169 14.1954 34.0592 12.5796 34.4644C11.5454 34.7242 10.8793 35.1875 10.4879 35.6744C8.69248 37.9036 9.9798 41.2901 13.7717 41.2901C16.0142 41.2901 18.1741 40.0147 19.8474 37.9127C22.3448 39.1372 27.2876 41.241 27.2876 41.241V38.2433C27.2894 38.2433 26.6682 38.1924 23.9302 37.2586ZM13.418 39.9947C10.461 39.9947 9.5866 37.6183 11.0481 36.3175C11.5364 35.8779 12.427 35.6635 12.9009 35.6162C14.6569 35.44 16.2835 36.1231 18.2028 37.0788C16.8545 38.8737 15.1362 39.9947 13.418 39.9947Z" fill="white"/>
<path d="M49.5527 27.9185C49.5527 28.9214 50.2781 29.5972 51.2889 29.5972C52.2997 29.5972 53.0251 28.9214 53.0251 27.9185C53.0251 26.9338 52.2997 26.2398 51.2889 26.2398C50.2781 26.2398 49.5527 26.9338 49.5527 27.9185Z" fill="#1677FF"/>
<path d="M47.7213 26.6631H44.7086V40.7505H47.7213V26.6631Z" fill="black"/>
<path d="M39.4266 27.1463H35.3834L30.8643 40.7523H33.649L34.412 38.0889H39.1986L39.924 40.7523H43.4897L39.4266 27.1463ZM35.0404 35.8688L36.8323 29.5972H36.9077L38.6043 35.8688H35.0404Z" fill="black"/>
<path d="M52.7952 30.4076H49.7825V40.7524H52.7952V30.4076Z" fill="black"/>
<path d="M84.2832 30.4275L84.3012 30.4076H81.4608L79.6672 36.6991H79.5721L77.5127 30.4076H74.1373L78.1986 40.7905L76.5019 43.9554V44.0317H79.1519L84.2832 30.4275Z" fill="black"/>
<path d="M60.291 30.195C59.185 30.195 58.3268 30.6201 57.3537 31.4304V30.4076H54.3409V44.0317H57.3537V40.6543C57.9264 40.8087 58.4596 40.8868 59.1078 40.8868C61.7973 40.8868 64.2193 38.8793 64.2193 35.3093C64.2193 32.1063 62.4652 30.195 60.291 30.195ZM58.3824 38.9756C58.0395 38.9756 57.7145 38.9374 57.3519 38.8211V33.2254C57.9821 32.7821 58.4955 32.5696 59.1437 32.5696C60.2694 32.5696 61.1653 33.4761 61.1653 35.4074C61.1671 37.8764 59.8511 38.9756 58.3824 38.9756Z" fill="black"/>
<path d="M73.5448 38.1653V33.8431C73.5448 31.4886 72.1713 30.195 69.7493 30.195C68.2035 30.195 67.137 30.4657 65.1907 31.0634L65.724 33.438C67.4979 32.6277 68.2789 32.2807 69.0994 32.2807C70.0905 32.2807 70.5303 32.9947 70.5303 34.0957V34.172C67.0777 34.8278 66.0095 35.1948 65.3434 35.8707C64.8478 36.3721 64.6378 37.0861 64.6378 37.9164C64.6378 39.9039 66.1639 40.965 67.593 40.965C68.6613 40.965 69.5195 40.5598 70.6829 39.6714L70.893 40.7524H73.9057L73.5448 38.1653ZM70.5321 38.2434C69.7314 38.6867 69.2735 38.8611 68.7403 38.8611C68.0149 38.8611 67.5571 38.3778 67.5571 37.6075C67.5571 37.3186 67.6146 37.028 67.8426 36.7972C68.2053 36.4302 68.9109 36.1595 70.5321 35.7744V38.2434Z" fill="black"/>
</svg>
