<svg width="94" height="67" viewBox="0 0 94 67" fill="none" xmlns="http://www.w3.org/2000/svg">
<rect x="0.5" y="0.5" width="93" height="66" rx="5.5" fill="white" stroke="#D9D9D9"/>
<path fill-rule="evenodd" clip-rule="evenodd" d="M22.4156 24.9378C23.6779 25.0485 24.9403 24.2737 25.7293 23.2913C26.5052 22.2813 27.018 20.9253 26.8865 19.5417C25.7688 19.597 24.388 20.3165 23.599 21.3266C22.8758 22.1982 22.2578 23.6096 22.4156 24.9378ZM37.4328 42.759V21.1882H45.1255C49.0968 21.1882 51.8715 24.0661 51.8715 28.2724C51.8715 32.4786 49.0442 35.3843 45.0203 35.3843H40.6151V42.759H37.4328ZM26.8733 25.2007C25.7611 25.1334 24.7463 25.5526 23.9267 25.8913C23.3992 26.1092 22.9525 26.2938 22.6127 26.2938C22.2313 26.2938 21.7662 26.0994 21.244 25.8811L21.244 25.8811L21.244 25.8811C20.5597 25.5951 19.7774 25.268 18.957 25.2837C17.0766 25.3114 15.3276 26.4322 14.3677 28.217C12.3952 31.7868 13.8548 37.0723 15.7616 39.9779C16.6952 41.4169 17.813 42.9943 19.2858 42.9389C19.9337 42.9132 20.3998 42.7051 20.8821 42.4897C21.4375 42.2418 22.0144 41.9842 22.9151 41.9842C23.7847 41.9842 24.3364 42.2351 24.8659 42.4759C25.3694 42.7048 25.853 42.9247 26.5708 42.9112C28.0962 42.8836 29.0562 41.4723 29.9898 40.0333C30.9974 38.4889 31.4401 36.9816 31.5073 36.7529L31.5152 36.7264C31.5136 36.7247 31.5012 36.7187 31.4792 36.7081C31.1424 36.5459 28.568 35.3058 28.5433 31.9805C28.5185 29.1894 30.5852 27.7753 30.9106 27.5527C30.9304 27.5391 30.9437 27.53 30.9498 27.5252C29.6348 25.4775 27.5834 25.2561 26.8733 25.2007ZM57.6839 42.9251C59.6827 42.9251 61.5368 41.8597 62.3784 40.1716H62.4442V42.759H65.3898V32.022C65.3898 28.9089 63.0228 26.9026 59.3802 26.9026C56.0007 26.9026 53.5022 28.9365 53.4101 31.7315H56.2768C56.5135 30.4032 57.6839 29.5315 59.2882 29.5315C61.2344 29.5315 62.3258 30.4862 62.3258 32.2434V33.4334L58.3545 33.6824C54.6594 33.9176 52.6606 35.5088 52.6606 38.2761C52.6606 41.071 54.7251 42.9251 57.6839 42.9251ZM58.5384 40.3654C56.8421 40.3654 55.7638 39.5075 55.7638 38.1931C55.7638 36.8371 56.8026 36.0484 58.7883 35.9239L62.3256 35.6887V36.9063C62.3256 38.9264 60.695 40.3654 58.5384 40.3654ZM75.16 43.6031C73.8845 47.3804 72.4249 48.6257 69.3215 48.6257C69.0848 48.6257 68.2958 48.598 68.1117 48.5426V45.9552C68.3089 45.9829 68.7955 46.0106 69.0453 46.0106C70.4524 46.0106 71.2414 45.388 71.7279 43.7691L72.0172 42.8144L66.6257 27.1102H69.9527L73.7004 39.8534H73.7662L77.5139 27.1102H80.7488L75.16 43.6031ZM40.6148 24.0108H44.2837C47.0451 24.0108 48.6231 25.5605 48.6231 28.2862C48.6231 31.012 47.0451 32.5755 44.2705 32.5755H40.6148V24.0108Z" fill="black"/>
</svg>
