<svg width="93" height="67" viewBox="0 0 93 67" fill="none" xmlns="http://www.w3.org/2000/svg">
<path d="M1.72713 11.7672C1.72713 6.51914 5.98153 2.26472 11.2296 2.26472H81.8195C87.0675 2.26472 91.3219 6.51913 91.3219 11.7672V55.9828C91.3219 61.2309 87.0675 65.4853 81.8195 65.4853H11.2296C5.98153 65.4853 1.72713 61.2309 1.72713 55.9828V11.7672Z" fill="white"/>
<path d="M1.72713 11.7672C1.72713 6.51914 5.98153 2.26472 11.2296 2.26472H81.8195C87.0675 2.26472 91.3219 6.51913 91.3219 11.7672V55.9828C91.3219 61.2309 87.0675 65.4853 81.8195 65.4853H11.2296C5.98153 65.4853 1.72713 61.2309 1.72713 55.9828V11.7672Z" stroke="#E4E7EC" stroke-width="2.71499"/>
<path fill-rule="evenodd" clip-rule="evenodd" d="M67.8915 33.6964C67.8915 45.7362 58.2462 55.4964 46.348 55.4964C34.4499 55.4964 24.8046 45.7362 24.8046 33.6964C24.8046 21.6567 34.4499 11.8965 46.348 11.8965C58.2462 11.8965 67.8915 21.6567 67.8915 33.6964ZM51.5237 25.5971C54.5205 26.6384 56.7127 28.1977 56.2826 31.0995C55.9702 33.2245 54.8018 34.2522 53.2493 34.612C55.3792 35.7297 56.1051 37.8509 55.4306 40.4157C54.15 44.1067 51.1059 44.4175 47.057 43.646L46.0738 47.6137L43.7005 47.0168L44.6701 43.1022C44.0548 42.9482 43.426 42.7832 42.7782 42.6074L41.8045 46.5411L39.4339 45.9441L40.4157 41.9682L35.6351 40.7524L36.8144 38.0127C36.8144 38.0127 38.5643 38.4802 38.54 38.4462C39.2121 38.6138 39.5109 38.1722 39.6286 37.8791L42.2927 27.11C42.3224 26.6016 42.148 25.961 41.1865 25.7184C41.223 25.6925 39.4623 25.2863 39.4623 25.2863L40.0938 22.7307L44.8811 23.926L45.8547 19.9951L48.2267 20.5921L47.2733 24.4453C47.9117 24.5912 48.5527 24.7397 49.1761 24.8965L50.1227 21.0678L52.4961 21.6648L51.5237 25.5971ZM45.8448 32.1544C47.4615 32.5881 50.9794 33.5319 51.5926 31.0573C52.2182 28.5255 48.8003 27.7609 47.1269 27.3865C46.9372 27.3441 46.77 27.3066 46.6336 27.2722L45.4516 32.0509C45.5642 32.0791 45.6963 32.1145 45.8445 32.1543L45.8448 32.1544ZM44.0132 39.8483C45.9495 40.3644 50.1845 41.4932 50.8584 38.7664C51.5481 35.9785 47.442 35.0498 45.4386 34.5967C45.2147 34.5461 45.0171 34.5014 44.8554 34.4607L43.5517 39.7274C43.6841 39.7605 43.8391 39.8018 44.0125 39.8481L44.0132 39.8483Z" fill="#F7931A"/>
</svg>
