<svg width="93" height="67" viewBox="0 0 93 67" fill="none" xmlns="http://www.w3.org/2000/svg">
<g clip-path="url(#clip0_1209_3722)">
<path fill-rule="evenodd" clip-rule="evenodd" d="M35.3788 31.825C35.8438 32.0204 36.3863 32.0762 36.89 32.2437L35.96 34.6166C35.885 34.7447 35.8466 34.8822 35.8471 35.0212C35.8476 35.1601 35.8871 35.2976 35.963 35.4253C36.039 35.553 36.15 35.6684 36.2893 35.7645C36.4286 35.8606 36.5934 35.9354 36.7738 35.9846C37.1337 36.0859 37.5345 36.0812 37.8898 35.9716C38.245 35.8619 38.5261 35.656 38.6725 35.3983C39.2538 34.5608 39.7963 33.6954 40.3775 32.8579C43.5503 33.0536 46.7325 32.5679 49.5225 31.4621C50.8777 30.9462 51.9427 30.1079 52.5362 29.0898C53.1297 28.0718 53.215 26.937 52.7775 25.8787C52.547 25.3634 52.1693 24.8886 51.6688 24.4847C51.1682 24.0808 50.556 23.7569 49.8713 23.5337C48.647 23.1379 47.335 22.9017 45.9963 22.8358C46.3063 22.11 46.5775 21.3841 46.81 20.6304C48.5345 20.6484 50.2505 20.8076 51.925 21.105C52.0851 21.1492 52.2558 21.1698 52.4272 21.1656C52.5985 21.1613 52.7669 21.1323 52.9223 21.0802C53.0778 21.0281 53.2171 20.954 53.332 20.8624C53.4469 20.7707 53.5351 20.6633 53.5913 20.5466C53.6948 20.313 53.6725 20.0598 53.529 19.8375C53.3854 19.6151 53.131 19.4397 52.8163 19.3462C51.1321 18.9279 49.3918 18.6378 47.6238 18.4808L48.3988 16.75C48.4649 16.6382 48.4998 16.5181 48.5016 16.3965C48.5033 16.275 48.4718 16.1544 48.4088 16.0416C48.3458 15.9288 48.2526 15.8261 48.1346 15.7393C48.0165 15.6525 47.8758 15.5833 47.7206 15.5356C47.5654 15.4879 47.3987 15.4628 47.23 15.4615C47.0613 15.4603 46.8939 15.483 46.7374 15.5284C46.5808 15.5737 46.4383 15.6409 46.3177 15.7259C46.1972 15.811 46.1012 15.9123 46.035 16.0241C45.4925 16.7221 45.0275 17.4479 44.485 18.1458C42.4458 18.0829 40.4057 18.2525 38.44 18.6483C37.1731 18.8737 35.9679 19.2512 34.875 19.765C34.4268 19.999 34.0604 20.305 33.8048 20.6587C33.5492 21.0124 33.4115 21.4042 33.4025 21.8029C33.4336 22.6462 33.9202 23.4475 34.7588 24.0362C35.6113 24.6566 36.6252 25.1499 37.7425 25.4879C38.3045 25.5857 38.8737 25.6603 39.4475 25.7112C38.7422 27.0812 38.1471 28.4794 37.665 29.8987C37.3938 29.8987 37.0838 29.8987 36.8513 29.7312C35.464 29.1843 34.1645 28.5289 32.9763 27.7771C32.679 27.6245 32.3151 27.5545 31.9518 27.5802C31.5886 27.6059 31.2505 27.7254 31 27.9166C30.8618 28.0153 30.752 28.1327 30.6771 28.2621C30.6022 28.3914 30.5637 28.5302 30.5637 28.6704C30.5637 28.8106 30.6022 28.9494 30.6771 29.0787C30.752 29.2081 30.8618 29.3255 31 29.4241C32.3451 30.3274 33.8119 31.1317 35.3788 31.825ZM39.835 21.2725C40.7442 21.0745 41.679 20.9435 42.625 20.8816C42.315 21.3562 41.9663 21.775 41.6563 22.2216V22.445C40.9935 22.4773 40.3277 22.4397 39.68 22.3333C39.1355 22.2136 38.6044 22.0643 38.0913 21.8866C38.6477 21.6473 39.231 21.4418 39.835 21.2725ZM45.9575 26.2696C46.5561 26.3276 47.142 26.4401 47.7013 26.6046C47.7013 26.6046 48.1275 26.6046 48.1663 26.8558C48.7475 27.9725 47.5075 28.7541 46.035 29.2846C44.8212 29.7247 43.5097 30.0082 42.16 30.1221C42.3925 29.7591 42.6638 29.4241 42.8963 29.0333C43.4388 28.14 43.9813 27.2187 44.485 26.2416L45.9575 26.2696Z" fill="black"/>
<path fill-rule="evenodd" clip-rule="evenodd" d="M0.348764 38.6366C0.331355 38.8221 0.387731 39.0073 0.511277 39.1705C0.634823 39.3336 0.820412 39.468 1.04626 39.5579C1.04626 39.5579 21.545 40.2558 29.0238 40.2279C34.565 40.2279 40.0288 40.2279 45.4925 39.9766C53.6688 39.7533 61.8838 39.4462 70.0988 39.4741C70.9777 39.3048 71.7626 38.9441 72.3463 38.4412C73.8963 35.9846 75.5625 33.6116 77.1125 31.1271C77.7325 30.0662 78.3525 29.0054 78.9338 27.9166C79.515 26.8279 80.0188 25.7671 80.5225 24.6783C84.8238 15.2704 91.1013 12.1996 56.885 11.6133C51.3001 11.5254 45.7125 11.6466 40.145 11.9762C8.21501 13.6791 17.1663 11.3062 9.37751 22.3333C8.56376 23.5058 7.82751 24.7062 7.05251 25.9066L4.96001 29.5079C3.37126 32.2996 1.93751 35.2308 0.348764 38.1062V38.3296V38.4691V38.6366ZM9.22251 30.9596C10.0363 29.7871 10.85 28.6146 11.5863 27.4141C12.3225 26.2137 13.0588 25.0133 13.7175 23.785C15.19 20.9933 16.3525 18.2016 17.5925 15.41H44.7175C51.1113 15.41 57.4663 15.0471 63.8213 15.1866C69.6697 15.2842 75.4993 15.7042 81.2588 16.4429C79.5925 18.7879 77.8875 21.105 76.3375 23.5337C75.6788 24.5667 75.02 25.6554 74.4388 26.7162C73.8575 27.7771 73.315 28.8937 72.85 30.0104C71.8038 32.4671 71.0288 34.9516 70.215 37.4083C61.07 36.9616 51.9638 36.6546 42.8188 36.6266C37.355 36.6266 31.8525 36.6266 26.3888 36.8779C19.0263 37.1012 11.7025 37.4362 4.34001 37.6037C5.89001 35.3425 7.75001 33.1929 9.22251 30.9596Z" fill="black"/>
<path fill-rule="evenodd" clip-rule="evenodd" d="M1.20138 46.6208C8.68013 47.2629 16.2364 47.5421 23.8314 47.6537H32.8989C37.3939 47.6537 41.8889 47.5142 46.3451 47.5142C52.3126 47.5142 58.3576 47.5142 64.3639 47.2908C68.4393 47.205 72.5031 46.9346 76.5314 46.4812C76.8414 46.4812 76.2601 47.6258 82.2664 37.855C82.8864 36.7662 83.5451 35.7054 84.1264 34.6167C84.7076 33.5279 85.2889 32.4392 85.7926 31.3225C86.9939 28.6983 87.9239 26.0742 89.0089 23.45C89.1373 23.2205 89.134 22.9636 88.9996 22.7358C88.8651 22.5081 88.6106 22.3282 88.292 22.2356C87.9734 22.1431 87.6168 22.1455 87.3007 22.2423C86.9846 22.3392 86.7349 22.5225 86.6064 22.7521C84.8239 25.1808 83.0026 27.5537 81.3751 30.0662C80.7164 31.155 80.0964 32.2437 79.4764 33.3325C78.8564 34.4212 78.3914 35.5379 77.9264 36.6546C76.7639 39.2229 75.8339 41.8192 74.7876 44.3875C71.3204 44.5878 67.8415 44.6624 64.3639 44.6108C58.3576 44.6108 52.3126 44.1642 46.3451 44.0246C40.3776 43.885 34.3326 44.0246 28.2876 44.22C22.2426 44.4154 16.3139 44.7225 10.3464 44.7783H1.39513C1.05414 44.7697 0.721164 44.854 0.46261 45.0144C0.204055 45.1748 0.0389199 45.3995 0.000134682 45.6437C-0.0110748 45.8864 0.107203 46.1229 0.330641 46.3046C0.554079 46.4864 0.86569 46.5995 1.20138 46.6208Z" fill="black"/>
<path fill-rule="evenodd" clip-rule="evenodd" d="M92.225 30.15C91.9012 30.0583 91.5402 30.0626 91.2207 30.162C90.9013 30.2613 90.6494 30.4477 90.52 30.6804C88.7375 33.1092 86.8775 35.4821 85.25 37.9946C84.5913 39.0833 84.01 40.1721 83.39 41.2608C82.77 42.3496 82.305 43.4662 81.84 44.5829C80.6775 47.1512 79.7088 49.7475 78.7013 52.3158C75.2138 52.5112 71.7263 52.595 68.2388 52.5392C62.2325 52.5392 56.1875 52.1204 50.2588 51.9529C44.33 51.7854 37.5488 51.8133 30.69 51.8133C23.8313 51.8133 17.4763 51.9529 11.315 51.8133C7.94376 51.8133 4.65001 51.8133 1.58876 51.6458C1.41661 51.6302 1.24182 51.6407 1.07569 51.6768C0.909554 51.7128 0.755774 51.7736 0.624292 51.8552C0.49281 51.9367 0.386553 52.0373 0.312392 52.1503C0.23823 52.2633 0.197815 52.3863 0.19376 52.5112C0.177781 52.6323 0.195238 52.7545 0.245122 52.8707C0.295007 52.9869 0.376332 53.0948 0.484406 53.1882C0.59248 53.2816 0.725164 53.3587 0.874803 53.415C1.02444 53.4713 1.18807 53.5057 1.35626 53.5162C10.23 54.27 20.7313 54.94 30.7675 55.1912C37.665 55.3867 44.3688 55.1912 50.375 55.3308C56.3813 55.4704 62.4263 55.3308 68.4325 55.1075C72.5058 55.0158 76.5684 54.7548 80.6 54.3258C80.8713 54.3258 80.3288 55.4704 86.335 45.6717L88.195 42.4612C88.815 41.3725 89.3575 40.2837 89.8613 39.1671C91.0238 36.5429 91.9538 33.9187 93.0388 31.2946C93.137 31.065 93.107 30.8169 92.955 30.6031C92.8029 30.3893 92.541 30.2267 92.225 30.15Z" fill="black"/>
</g>
<defs>
<clipPath id="clip0_1209_3722">
<rect width="93" height="67" fill="white"/>
</clipPath>
</defs>
</svg>
