<svg width="93" height="67" viewBox="0 0 93 67" fill="none" xmlns="http://www.w3.org/2000/svg">
<path d="M11.288 2.26472H81.8778C87.1259 2.26472 91.3803 6.51913 91.3803 11.7672V55.9828C91.3803 61.2309 87.1259 65.4853 81.8778 65.4853H11.288C6.03988 65.4853 1.78548 61.2309 1.78548 55.9828V11.7672C1.78548 6.51914 6.03988 2.26472 11.288 2.26472Z" fill="white"/>
<path d="M11.288 2.26472H81.8778C87.1259 2.26472 91.3803 6.51913 91.3803 11.7672V55.9828C91.3803 61.2309 87.1259 65.4853 81.8778 65.4853H11.288C6.03988 65.4853 1.78548 61.2309 1.78548 55.9828V11.7672C1.78548 6.51914 6.03988 2.26472 11.288 2.26472Z" stroke="#E4E7EC" stroke-width="2.71499"/>
<path d="M39.3862 31.7355C39.3193 31.7742 39.2524 31.7839 39.176 31.7742C39.0995 31.7549 39.0421 31.7161 38.9944 31.658C38.5643 31.0284 37.8379 30.6603 37.0829 30.6797C35.6302 30.6797 34.7318 31.8517 34.7318 33.5178C34.7318 35.1838 35.6398 36.3752 37.102 36.3752C37.4843 36.3849 37.8571 36.2977 38.1916 36.1137C38.5261 35.9393 38.8128 35.6778 39.0135 35.3484C39.0517 35.2903 39.1186 35.2419 39.1855 35.2322C39.2524 35.2128 39.3289 35.2225 39.3958 35.2613L40.0839 35.6681C40.1221 35.6875 40.1508 35.7165 40.1795 35.7456C40.2081 35.7746 40.2272 35.8134 40.2368 35.8618C40.2464 35.9006 40.2464 35.949 40.2368 35.9877C40.2272 36.0265 40.2081 36.0652 40.189 36.104C39.5009 37.1501 38.3349 37.7603 37.0925 37.7313C34.7701 37.7313 33.1931 36.0168 33.1931 33.5274C33.1931 31.0381 34.7701 29.343 37.0638 29.343C38.2776 29.3139 39.434 29.8951 40.1412 30.8928C40.1699 30.9218 40.1795 30.9606 40.189 31.009C40.1986 31.0478 40.1986 31.0865 40.189 31.1349C40.1795 31.1737 40.1699 31.2124 40.1412 31.2512C40.1221 31.2899 40.0934 31.319 40.0552 31.3384L39.3862 31.7355Z" fill="#00D54B"/>
<path d="M44.4804 37.2855V36.9465C44.1172 37.4211 43.6107 37.7214 42.7888 37.7214C41.5846 37.7214 40.7435 37.0531 40.7435 35.881C40.7435 34.4184 42.0338 34.1666 42.827 34.0503C43.6776 33.9244 44.404 33.8663 44.404 33.3045C44.404 32.8008 43.8305 32.6749 43.3527 32.6749C42.7983 32.6846 42.2536 32.8202 41.7662 33.0817C41.7279 33.1011 41.6993 33.1108 41.661 33.1205C41.6228 33.1205 41.5846 33.1205 41.5463 33.1108C41.5081 33.1011 41.4794 33.0817 41.4508 33.0527C41.4221 33.0236 41.3934 32.9945 41.3839 32.9558L41.1354 32.4327C41.1067 32.3649 41.0971 32.2874 41.1163 32.21C41.1354 32.1421 41.1832 32.0743 41.2501 32.0356C41.9382 31.6675 42.7028 31.4641 43.4865 31.4641C44.8723 31.4641 45.8567 32.0453 45.8567 33.4401V37.2952C45.8567 37.4599 45.7324 37.5858 45.5699 37.5858C45.5699 37.5858 45.5699 37.5858 45.5604 37.5858H44.7958C44.7576 37.5858 44.7193 37.5858 44.6811 37.5664C44.6429 37.5471 44.6142 37.5277 44.5855 37.5083C44.5569 37.4793 44.5378 37.4502 44.5186 37.4115C44.49 37.363 44.4804 37.3243 44.4804 37.2855ZM44.404 34.6218C44.1364 34.8252 43.6394 34.893 43.1137 34.9899C42.5881 35.0868 42.1484 35.2321 42.1484 35.8035C42.1484 36.3363 42.5307 36.5881 43.0755 36.5881C43.7541 36.5881 44.3944 36.2007 44.3944 35.3095V34.6218H44.404Z" fill="#00D54B"/>
<path d="M47.0894 36.0552C47.1946 35.9293 47.3666 35.9196 47.4908 36.0165C47.9783 36.3845 48.5708 36.588 49.1825 36.5686C49.8132 36.5686 50.272 36.3652 50.272 35.8615C50.272 35.4062 49.8419 35.3191 48.8193 35.135C47.7298 34.951 46.6785 34.5829 46.6785 33.314C46.6785 31.9967 47.7967 31.4446 49.0773 31.4446C49.8801 31.4349 50.6543 31.6964 51.2946 32.1807C51.3615 32.2291 51.3998 32.3066 51.3998 32.3841C51.3998 32.4229 51.3998 32.4616 51.3902 32.5004C51.3806 32.5391 51.3615 32.5779 51.3329 32.6069L50.9697 33.0428C50.9219 33.1009 50.855 33.1397 50.7785 33.1493C50.7021 33.159 50.6256 33.1397 50.5683 33.0912C50.1191 32.7619 49.5743 32.5875 49.02 32.5875C48.4848 32.5875 48.0165 32.7425 48.0165 33.1784C48.0165 33.653 48.6759 33.7499 49.3354 33.8564C50.7499 34.1083 51.6387 34.5151 51.6387 35.6968C51.6387 36.9463 50.6543 37.7116 49.0869 37.7116C48.2363 37.7406 47.3953 37.4597 46.7167 36.927C46.6594 36.8785 46.6211 36.801 46.6116 36.7236C46.6116 36.6848 46.6116 36.6461 46.6211 36.6073C46.6307 36.5686 46.6498 36.5298 46.6785 36.5008L47.0894 36.0552Z" fill="#00D54B"/>
<path d="M52.5084 37.2855V29.7787C52.5084 29.614 52.6327 29.4881 52.7951 29.4881H53.6362C53.7987 29.4881 53.9229 29.6237 53.9229 29.7787V32.3456C54.3434 31.7741 55.022 31.4447 55.7292 31.4641C56.9717 31.4641 57.698 32.3553 57.698 33.6435V37.2952C57.698 37.4599 57.5738 37.5858 57.4113 37.5858H56.5703C56.4078 37.5858 56.2835 37.4599 56.2835 37.3049C56.2835 37.3049 56.2835 37.3049 56.2835 37.2952V33.9728C56.2835 33.3336 56.0828 32.7621 55.28 32.7621C54.5154 32.7621 53.9324 33.3045 53.9324 34.215V37.3049C53.9324 37.3824 53.9038 37.4599 53.8464 37.5083C53.7891 37.5664 53.7222 37.5955 53.6457 37.5955H52.8047C52.7665 37.5955 52.7282 37.5858 52.69 37.5761C52.6231 37.5471 52.5658 37.4889 52.5371 37.4115C52.518 37.363 52.5084 37.3243 52.5084 37.2855Z" fill="#00D54B"/>
<path d="M66.9398 37.3825L66.3377 35.5711H63.2794L62.6773 37.3825C62.6581 37.4406 62.6199 37.489 62.5721 37.5278C62.5244 37.5665 62.467 37.5859 62.4001 37.5859H61.4157C61.3201 37.5859 61.2341 37.5374 61.1768 37.46C61.1481 37.4212 61.129 37.3728 61.129 37.334C61.1194 37.2856 61.129 37.2372 61.1481 37.1984L63.9006 29.6916C63.9484 29.5754 64.0535 29.5076 64.1778 29.5076H65.5253C65.5827 29.5076 65.64 29.5269 65.6974 29.556C65.7451 29.5947 65.7834 29.6432 65.8025 29.7013L68.5454 37.2081C68.5645 37.2565 68.5645 37.305 68.5645 37.3437C68.555 37.3922 68.5454 37.4406 68.5167 37.4793C68.4881 37.5181 68.4498 37.5471 68.4116 37.5762C68.3734 37.5956 68.3256 37.6053 68.2778 37.6053H67.2361C67.0832 37.5859 66.978 37.5084 66.9398 37.3825ZM64.8276 30.7958L63.6521 34.3119H65.9554L64.8276 30.7958Z" fill="#00D54B"/>
<path d="M70.6384 31.8905V32.3554C71.0589 31.7645 71.7374 31.4352 72.4542 31.4546C74.0694 31.4546 75.1111 32.8106 75.1111 34.5735C75.1111 36.3364 74.0694 37.7119 72.4542 37.7119C71.7374 37.7409 71.0589 37.3922 70.6384 36.8014V39.2423C70.6384 39.407 70.5141 39.5329 70.3612 39.5329C70.3612 39.5329 70.3612 39.5329 70.3516 39.5329H69.5106C69.3481 39.5329 69.2239 39.407 69.2239 39.2423C69.2239 39.2423 69.2239 39.2423 69.2239 39.2326V31.8517C69.2239 31.687 69.3481 31.5611 69.5106 31.5611H70.3516C70.3899 31.5611 70.4281 31.5708 70.4663 31.5805C70.5045 31.5999 70.5332 31.6192 70.5619 31.6483C70.5906 31.6774 70.6097 31.7064 70.6288 31.7452C70.6288 31.813 70.6384 31.8517 70.6384 31.8905ZM72.158 36.4624C73.1423 36.4624 73.6107 35.61 73.6107 34.5832C73.6107 33.5565 73.1328 32.7235 72.158 32.7235C71.1831 32.7235 70.6384 33.5468 70.6384 34.5832C70.6384 35.61 71.1544 36.4624 72.158 36.4624Z" fill="#00D54B"/>
<path d="M77.4049 31.8905V32.3554C77.8255 31.7645 78.504 31.4352 79.2208 31.4546C80.836 31.4546 81.8777 32.8106 81.8777 34.5735C81.8777 36.3364 80.836 37.7119 79.2208 37.7119C78.504 37.7409 77.8255 37.3922 77.4049 36.8014V39.2423C77.4049 39.407 77.2807 39.5329 77.1278 39.5329C77.1278 39.5329 77.1278 39.5329 77.1182 39.5329H76.2772C76.1147 39.5329 75.9905 39.3973 75.9905 39.2423V31.8614C75.9905 31.7064 76.1243 31.5708 76.2772 31.5708H77.1182C77.1565 31.5708 77.1947 31.5805 77.2329 31.5902C77.2711 31.6096 77.2998 31.6289 77.3285 31.658C77.3572 31.687 77.3763 31.7161 77.3954 31.7548C77.4049 31.813 77.4145 31.8517 77.4049 31.8905ZM78.9341 36.4624C79.9185 36.4624 80.3868 35.61 80.3868 34.5735C80.3868 33.5371 79.9089 32.7138 78.9341 32.7138C77.9593 32.7138 77.4145 33.5468 77.4145 34.5735C77.4049 35.61 77.9306 36.4624 78.9341 36.4624Z" fill="#00D54B"/>
<path d="M14.8815 25.6332H23.2059C25.1938 25.6332 26.7994 27.2605 26.7994 29.2752V37.7991C26.7994 39.8138 25.1938 41.4411 23.2059 41.4411H14.8815C12.8936 41.4411 11.288 39.8138 11.288 37.7991V29.2752C11.288 27.2605 12.9031 25.6332 14.8815 25.6332Z" fill="#00D54B"/>
<path d="M21.5716 31.5127C20.9791 31.009 20.224 30.7281 19.4499 30.7281C18.8096 30.7281 18.1692 30.9412 18.1692 31.5417C18.1692 32.0841 18.7427 32.2972 19.4403 32.5588L19.6506 32.6363C21.0364 33.1109 22.1833 33.6921 22.1833 35.0675C22.1833 36.5689 21.0364 37.5859 19.1632 37.7021L18.9911 38.5061C18.9625 38.6514 18.8287 38.7579 18.6853 38.7579H17.5002C17.4046 38.7579 17.3091 38.7095 17.2517 38.632C17.1944 38.5545 17.1657 38.4577 17.1848 38.3608L17.3664 37.5084C16.6592 37.3244 16.0093 36.966 15.4741 36.4623C15.3498 36.3364 15.3403 36.133 15.4645 36.0071L15.4741 35.9974L16.124 35.3484C16.2482 35.2225 16.4489 35.2225 16.5732 35.3484C17.1753 35.9296 17.9685 36.2492 18.8 36.2298C19.6506 36.2298 20.2336 35.8618 20.2336 35.2806C20.2336 34.7575 19.7557 34.5832 18.8573 34.2442L18.5611 34.1279C17.4046 33.7114 16.3056 33.1109 16.3056 31.7257C16.3056 30.1178 17.634 29.3333 19.1918 29.2558L19.3543 28.4421C19.383 28.2968 19.5168 28.1903 19.6697 28.1903H20.8452C21.0173 28.1903 21.1606 28.3356 21.1606 28.5099C21.1606 28.5293 21.1606 28.5584 21.1511 28.5777L20.9695 29.4882C21.5716 29.682 22.1259 30.0016 22.6038 30.4181C22.6707 30.4762 22.7089 30.5537 22.7089 30.6506C22.7089 30.7378 22.6802 30.8249 22.6133 30.883L22.0017 31.503C21.887 31.6192 21.6958 31.6192 21.5716 31.5127Z" fill="white"/>
</svg>
