<svg width="94" height="67" viewBox="0 0 94 67" fill="none" xmlns="http://www.w3.org/2000/svg">
<path d="M2.26088 11.7028C2.26088 6.45474 6.51529 2.20033 11.7634 2.20033H82.3532C87.6013 2.20033 91.8557 6.45474 91.8557 11.7028V55.9184C91.8557 61.1665 87.6013 65.4209 82.3532 65.4209H11.7634C6.51528 65.4209 2.26088 61.1665 2.26088 55.9184V11.7028Z" fill="white"/>
<path d="M2.26088 11.7028C2.26088 6.45474 6.51529 2.20033 11.7634 2.20033H82.3532C87.6013 2.20033 91.8557 6.45474 91.8557 11.7028V55.9184C91.8557 61.1665 87.6013 65.4209 82.3532 65.4209H11.7634C6.51528 65.4209 2.26088 61.1665 2.26088 55.9184V11.7028Z" stroke="#E4E7EC" stroke-width="2.71499"/>
<ellipse cx="46.8818" cy="33.632" rx="21.5435" ry="21.7999" fill="#6481E7"/>
<path fill-rule="evenodd" clip-rule="evenodd" d="M37.4701 34.519L47.1337 40.2997V18.2932L37.4701 34.519Z" fill="white"/>
<path fill-rule="evenodd" clip-rule="evenodd" d="M47.1344 18.2932V40.2997L56.7981 34.519L47.1344 18.2932Z" fill="#C1CCF5"/>
<path fill-rule="evenodd" clip-rule="evenodd" d="M47.1344 30.0745L37.4702 34.5188L47.1338 40.2995L56.7981 34.5194L47.1344 30.0745Z" fill="#8299EC"/>
<path fill-rule="evenodd" clip-rule="evenodd" d="M47.1344 30.0745L37.4702 34.5188L47.1338 40.2995L47.1344 30.0745Z" fill="#C1CCF5"/>
<path fill-rule="evenodd" clip-rule="evenodd" d="M37.4702 36.3737L47.1338 50.1541V42.1512L37.4702 36.3737Z" fill="white"/>
<path fill-rule="evenodd" clip-rule="evenodd" d="M47.1344 42.1512V50.1547L56.8044 36.3737L47.1344 42.1512Z" fill="#C1CCF5"/>
</svg>
