<svg width="94" height="67" viewBox="0 0 94 67" fill="none" xmlns="http://www.w3.org/2000/svg">
<rect x="0.5" y="0.5" width="93" height="66" rx="5.5" fill="white" stroke="#D9D9D9"/>
<path fill-rule="evenodd" clip-rule="evenodd" d="M44.3952 43.9912V35.5577H48.5827C50.2986 35.5577 51.7469 34.9601 52.9276 33.7814L53.211 33.4826C55.3677 31.0422 55.226 27.2405 52.9276 24.9827C51.7784 23.7874 50.2042 23.1399 48.5827 23.1731H41.8607V43.9912H44.3952ZM44.3955 33.0011V25.7297H48.6466C49.5598 25.7297 50.4258 26.0949 51.0714 26.759C52.4412 28.1535 52.4727 30.4777 51.1501 31.922C50.5045 32.6359 49.5913 33.0343 48.6466 33.0011H44.3955ZM65.0336 30.8596C63.9474 29.8137 62.4676 29.2824 60.5943 29.2824C58.1857 29.2824 56.3753 30.2121 55.1788 32.0549L57.4143 33.5324C58.2329 32.2707 59.3506 31.6398 60.7674 31.6398C61.6647 31.6398 62.5306 31.9885 63.2075 32.6193C63.8687 33.217 64.2465 34.0802 64.2465 34.9933V35.6076C63.2705 35.0431 62.0426 34.7443 60.5313 34.7443C58.7681 34.7443 57.3513 35.1759 56.2966 36.0558C55.2418 36.9357 54.7066 38.0978 54.7066 39.5753C54.6751 40.92 55.2261 42.1983 56.2021 43.0616C57.1939 43.9913 58.4533 44.4561 59.9331 44.4561C61.6805 44.4561 63.0658 43.6426 64.1206 42.0157H64.2308V43.9913H66.6551V35.2091C66.6551 33.3664 66.1199 31.9055 65.0336 30.8596ZM58.1546 41.3682C57.635 40.9698 57.3201 40.3223 57.3201 39.6251C57.3201 38.8448 57.6665 38.1974 58.3436 37.6827C59.0363 37.1681 59.9023 36.9025 60.9257 36.9025C62.3428 36.8859 63.4449 37.2179 64.2322 37.8819C64.2322 39.0108 63.8071 39.9903 62.9726 40.8204C62.2168 41.6173 61.1934 42.0655 60.1227 42.0655C59.4142 42.0821 58.7214 41.8331 58.1546 41.3682ZM72.102 50.25L80.5715 29.7473H77.8166L73.8967 39.9737H73.8495L69.8351 29.7473H67.0802L72.6373 43.0782L69.4888 50.25H72.102Z" fill="#3C4043"/>
<path d="M35.6451 33.7316C35.6451 32.9181 35.5821 32.1047 35.4562 31.3078H24.767V35.9064H30.8908C30.639 37.3839 29.8204 38.712 28.6239 39.5421V42.5303H32.2762C34.4172 40.4551 35.6451 37.3839 35.6451 33.7316Z" fill="#4285F4"/>
<path d="M24.7675 45.419C27.8216 45.419 30.4034 44.3565 32.2767 42.5303L28.6245 39.5421C27.6012 40.2725 26.2946 40.6876 24.7675 40.6876C21.808 40.6876 19.3049 38.5792 18.4076 35.757H14.6451V38.8448C16.5657 42.879 20.4856 45.419 24.7675 45.419Z" fill="#34A853"/>
<path d="M18.4079 35.757C17.9356 34.2795 17.9356 32.6692 18.4079 31.175V28.1038H14.6449C13.0232 31.4739 13.0232 35.4582 14.6449 38.8283L18.4079 35.757Z" fill="#FBBC04"/>
<path d="M24.7675 26.2444C26.389 26.2112 27.9475 26.8586 29.1125 28.0373L32.3554 24.6174C30.2932 22.5921 27.5855 21.4798 24.7675 21.513C20.4856 21.513 16.5657 24.0696 14.6451 28.1037L18.4076 31.1916C19.3049 28.3528 21.808 26.2444 24.7675 26.2444Z" fill="#EA4335"/>
</svg>
