<svg width="93" height="67" viewBox="0 0 93 67" fill="none" xmlns="http://www.w3.org/2000/svg">
<path d="M1.96052 11.8316C1.96052 6.58356 6.21493 2.32915 11.463 2.32915H82.0529C87.3009 2.32915 91.5553 6.58355 91.5553 11.8316V56.0472C91.5553 61.2953 87.3009 65.5497 82.0529 65.5497H11.463C6.21493 65.5497 1.96052 61.2953 1.96052 56.0473V11.8316Z" fill="white"/>
<path d="M1.96052 11.8316C1.96052 6.58356 6.21493 2.32915 11.463 2.32915H82.0529C87.3009 2.32915 91.5553 6.58355 91.5553 11.8316V56.0472C91.5553 61.2953 87.3009 65.5497 82.0529 65.5497H11.463C6.21493 65.5497 1.96052 61.2953 1.96052 56.0473V11.8316Z" stroke="#E4E7EC" stroke-width="2.71499"/>
<path fill-rule="evenodd" clip-rule="evenodd" d="M41.5086 49.6493L42.1079 45.6681L40.7729 45.6356H34.3983L38.8285 16.2568C38.8423 16.1679 38.8869 16.0853 38.952 16.0265C39.0175 15.9678 39.101 15.9355 39.1883 15.9355H49.9369C53.5055 15.9355 55.9681 16.712 57.2536 18.2449C57.8564 18.964 58.2403 19.7156 58.4261 20.5425C58.621 21.4103 58.6242 22.4469 58.4341 23.7115L58.4203 23.8035V24.6139L59.0231 24.9711C59.5306 25.2528 59.9341 25.5751 60.2435 25.944C60.759 26.559 61.0925 27.3405 61.2334 28.2668C61.3791 29.2195 61.331 30.3535 61.0925 31.6373C60.8174 33.1137 60.3729 34.3998 59.7723 35.4519C59.2202 36.4214 58.5166 37.2258 57.6811 37.8489C56.8835 38.441 55.936 38.8906 54.8645 39.1783C53.8262 39.4609 52.6424 39.6036 51.3441 39.6036H50.5076C49.9096 39.6036 49.3286 39.8289 48.8725 40.2327C48.4151 40.645 48.1128 41.2083 48.02 41.8243L47.9568 42.1828L46.8979 49.2001L46.85 49.4576C46.8372 49.5392 46.8154 49.5798 46.7833 49.6073C46.7547 49.6325 46.7136 49.6493 46.6735 49.6493H41.5086Z" fill="#28356A"/>
<path fill-rule="evenodd" clip-rule="evenodd" d="M59.5943 23.8971C59.5626 24.1116 59.5256 24.3308 59.4846 24.5561C58.0671 32.1679 53.2174 34.7975 47.0238 34.7975H43.8702C43.1127 34.7975 42.4743 35.3726 42.3565 36.1541L40.2846 49.8996C40.2079 50.4129 40.586 50.8752 41.0809 50.8752H46.6743C47.3365 50.8752 47.8992 50.372 48.0035 49.6888L48.0584 49.3917L49.1115 42.4019L49.1792 42.0186C49.2823 41.333 49.8462 40.8295 50.5084 40.8295H51.3449C56.7639 40.8295 61.0063 38.5285 62.2463 31.8695C62.764 29.0878 62.496 26.765 61.1254 25.1315C60.7107 24.639 60.1962 24.2301 59.5943 23.8971Z" fill="#298FC2"/>
<path fill-rule="evenodd" clip-rule="evenodd" d="M58.1109 23.2788C57.8943 23.2127 57.6709 23.1529 57.4417 23.0989C57.2112 23.0462 56.9753 22.9995 56.7323 22.9585C55.8821 22.8149 54.9503 22.7467 53.9523 22.7467H45.5276C45.32 22.7467 45.1229 22.7957 44.9467 22.8843C44.5579 23.0797 44.2694 23.4644 44.1994 23.9354L42.4071 35.8081L42.3557 36.1542C42.4735 35.3727 43.1119 34.7976 43.8694 34.7976H47.0231C53.2167 34.7976 58.0663 32.1666 59.4838 24.5562C59.5261 24.3309 59.5618 24.1117 59.5935 23.8972C59.235 23.6981 58.8466 23.5279 58.4284 23.3829C58.325 23.3469 58.2185 23.3124 58.1109 23.2788Z" fill="#22284F"/>
<path fill-rule="evenodd" clip-rule="evenodd" d="M44.2 23.9355C44.2699 23.4645 44.5585 23.0798 44.9472 22.8857C45.1247 22.7968 45.3205 22.7478 45.5282 22.7478H53.9529C54.9508 22.7478 55.8826 22.8162 56.7329 22.9599C56.9759 23.0005 57.2118 23.0475 57.4422 23.1002C57.6714 23.154 57.8948 23.2141 58.1115 23.2799C58.219 23.3134 58.3256 23.3483 58.4299 23.3829C58.8481 23.5279 59.2368 23.6995 59.5954 23.8972C60.0171 21.0843 59.5918 19.1691 58.1378 17.4349C56.5345 15.5253 53.6412 14.7082 49.9387 14.7082H39.1898C38.4336 14.7082 37.7884 15.2833 37.6716 16.0662L33.1946 45.7471C33.1063 46.3342 33.5393 46.864 34.1055 46.864H40.7414L44.2 23.9355Z" fill="#28356A"/>
</svg>
