<svg width="93" height="67" viewBox="0 0 93 67" fill="none" xmlns="http://www.w3.org/2000/svg">
<path d="M11.4047 2.26472H81.9945C87.2426 2.26472 91.497 6.51913 91.497 11.7672V55.9828C91.497 61.2309 87.2426 65.4853 81.9945 65.4853H11.4047C6.15658 65.4853 1.90217 61.2309 1.90217 55.9828V11.7672C1.90217 6.51914 6.15658 2.26472 11.4047 2.26472Z" fill="white"/>
<path d="M11.4047 2.26472H81.9945C87.2426 2.26472 91.497 6.51913 91.497 11.7672V55.9828C91.497 61.2309 87.2426 65.4853 81.9945 65.4853H11.4047C6.15658 65.4853 1.90217 61.2309 1.90217 55.9828V11.7672C1.90217 6.51914 6.15658 2.26472 11.4047 2.26472Z" stroke="#E4E7EC" stroke-width="2.71499"/>
<g clip-path="url(#clip0_1_6067)">
<path d="M17.678 32.21L15.811 39.3563H11.2498L12.1746 35.8406L17.678 32.21Z" fill="#072654"/>
<path d="M27.3864 29.9409C28.4549 29.9466 29.2075 30.1822 29.6326 30.659C30.0577 31.1358 30.1611 31.8136 29.9255 32.704C29.7704 33.313 29.4545 33.8702 29.0121 34.3125C28.5526 34.7721 27.9896 35.1053 27.3634 35.2776C27.8402 35.3868 28.1332 35.7257 28.2251 36.3059L28.2424 36.4323L28.587 39.3563H26.4615L26.1054 36.2083C26.0996 36.1049 26.0709 36.0015 26.0192 35.9095C25.9675 35.8176 25.8928 35.743 25.8066 35.6855C25.6286 35.5936 25.4332 35.5476 25.2322 35.5419H25.1115H23.8018L22.8022 39.3506H20.8146L23.2848 29.9409H27.3864ZM81.8397 32.4053L79.312 36.0474L76.3306 40.3674L76.3076 40.3903L75.6412 41.3554L75.6182 41.3899L75.5895 41.4359L75.015 42.2631H73.0389L75.3482 39.0059L74.3027 32.6351H76.3535L76.8706 36.7885L79.3752 33.2326L79.4097 33.1809L79.4499 33.1234L79.4901 33.0717L79.8003 32.4111H81.8397V32.4053ZM64.3301 32.9109C64.7092 33.2326 64.9562 33.6749 65.0424 34.1689C65.1458 34.7836 65.0998 35.4213 64.9218 36.0187C64.7552 36.6793 64.4737 37.2997 64.083 37.8512C63.7269 38.3568 63.2673 38.7761 62.7331 39.0748C62.2275 39.3506 61.6703 39.4942 61.0958 39.4942C60.688 39.5114 60.2858 39.408 59.9354 39.2012C59.6654 39.0404 59.4586 38.7933 59.3437 38.5004L59.3093 38.3855L58.2925 42.2631H56.3221L58.3384 34.5653L58.3499 34.5308L58.3557 34.4964L58.8497 32.6294H60.7741L60.4467 33.7094L60.4409 33.7553C60.7224 33.3532 61.1016 33.0257 61.5382 32.8132C61.9748 32.5834 62.4573 32.4685 62.9456 32.4685C63.4339 32.4398 63.9279 32.6006 64.3301 32.9109ZM61.9518 33.9794C61.722 33.9736 61.4922 34.0196 61.2739 34.1057C61.0614 34.1919 60.8661 34.324 60.6995 34.4849C60.3088 34.887 60.0388 35.3983 59.9182 35.944C59.7459 36.5817 59.7573 37.0642 59.9297 37.3974C60.102 37.7306 60.4295 37.9029 60.9178 37.9029C61.3831 37.9144 61.8311 37.7363 62.1701 37.4089C62.5492 37.0125 62.8135 36.5185 62.9341 35.9785C63.1007 35.3523 63.0892 34.8525 62.9169 34.5021C62.7445 34.1517 62.4228 33.9794 61.9518 33.9794ZM70.7985 32.7615C71.0628 32.9281 71.2696 33.1751 71.3844 33.4681L71.4247 33.5772L71.6774 32.6236H73.6076L71.8383 39.3448H69.9023L70.1608 38.351C69.8679 38.7014 69.5002 38.9772 69.0866 39.1667C68.6845 39.3506 68.2536 39.4482 67.817 39.4482C67.3115 39.4712 66.806 39.3276 66.3924 39.0231C66.0132 38.7244 65.7605 38.2878 65.68 37.811C65.5766 37.2021 65.6111 36.5817 65.7892 35.99C65.9615 35.3293 66.2488 34.7032 66.6451 34.1459C67.007 33.6347 67.4724 33.2038 68.0124 32.8936C68.5064 32.6064 69.0694 32.4513 69.6381 32.4513C70.0517 32.4398 70.4538 32.5432 70.7985 32.7615ZM69.7989 33.9966C69.5634 33.9966 69.3279 34.0425 69.1153 34.1345C68.897 34.2264 68.7017 34.3585 68.5351 34.5251C68.1502 34.933 67.8745 35.4385 67.7538 35.99C67.593 36.6104 67.593 37.0814 67.7768 37.4204C67.9549 37.7593 68.2881 37.9202 68.7821 37.9202C69.0119 37.9259 69.2417 37.8799 69.46 37.7938C69.6783 37.7076 69.8679 37.5755 70.0345 37.4146C70.3734 37.0527 70.6204 36.6219 70.7583 36.1393L70.8042 35.9612C70.9766 35.3236 70.9708 34.8353 70.787 34.5079C70.6089 34.1689 70.2815 33.9966 69.7989 33.9966ZM57.8559 32.5547L57.9823 32.6064L57.4882 34.4389C57.2067 34.2896 56.8965 34.2149 56.5863 34.2149C56.1153 34.1976 55.6557 34.3528 55.2823 34.6457C54.9606 34.9215 54.7251 35.2891 54.6044 35.6912L54.5642 35.8464L53.6451 39.3563H51.6804L53.4612 32.6351H55.3972L55.1444 33.6232C55.3857 33.29 55.6959 33.02 56.0463 32.8189C56.437 32.5949 56.8735 32.48 57.3216 32.48C57.4997 32.4685 57.6835 32.4915 57.8559 32.5547ZM50.6004 32.8764C51.037 33.1521 51.353 33.5887 51.4736 34.0942C51.6172 34.7032 51.5942 35.3466 51.4104 35.944C51.2381 36.6219 50.9336 37.2538 50.5028 37.7938C50.0949 38.3165 49.5779 38.7302 48.9862 39.0116C48.383 39.2931 47.7281 39.4367 47.0617 39.431C46.3609 39.431 45.7864 39.2931 45.3384 39.0116C44.896 38.7359 44.5801 38.2993 44.4537 37.7938C44.3158 37.1848 44.3388 36.5415 44.5169 35.944C44.6892 35.2719 44.9937 34.64 45.4245 34.0942C45.8324 33.5772 46.3551 33.1579 46.9526 32.8764C47.5615 32.5949 48.2279 32.4455 48.9 32.457C49.4917 32.4283 50.0834 32.5777 50.6004 32.8764ZM48.4979 33.9736C48.0326 33.9679 47.5845 34.1459 47.2456 34.4676C46.8951 34.8008 46.6309 35.2891 46.4643 35.944C46.1196 37.2595 46.4528 37.9144 47.4639 37.9144C47.9234 37.9259 48.3658 37.7478 48.699 37.4261C49.0436 37.0987 49.2964 36.6046 49.4687 35.944C49.6411 35.2949 49.6468 34.8066 49.4745 34.4676C49.3079 34.1287 48.9804 33.9736 48.4979 33.9736ZM44.5054 32.6294L44.1607 33.9621L39.8235 37.7938H43.3048L42.8911 39.3621H37.1293L37.4912 37.9776L41.7595 34.2034H38.5137L38.9274 32.6351H44.5054V32.6294ZM34.7797 32.7615C35.044 32.9281 35.2508 33.1751 35.3657 33.4681L35.4059 33.5772L35.6587 32.6236H37.5946L35.831 39.3448H33.8951L34.1536 38.351C33.8606 38.6957 33.4987 38.9714 33.0908 39.161C32.683 39.3506 32.2406 39.4482 31.7868 39.4482C31.2813 39.4712 30.7872 39.3218 30.3794 39.0231C30.0002 38.7244 29.7475 38.2878 29.667 37.811C29.5636 37.2021 29.5981 36.5817 29.7762 35.99C29.9428 35.3293 30.2358 34.7032 30.6321 34.1459C30.994 33.6347 31.4594 33.2038 31.9936 32.8936C32.4876 32.6064 33.0506 32.457 33.6193 32.457C34.0329 32.4455 34.4351 32.5489 34.7797 32.7615ZM33.7859 33.9966C33.5504 33.9966 33.3206 34.0425 33.1023 34.1345C32.884 34.2264 32.6887 34.3585 32.5221 34.5251C32.1315 34.933 31.8615 35.4385 31.7408 35.99C31.58 36.6104 31.5857 37.0814 31.7638 37.4204C31.9419 37.7593 32.2751 37.9202 32.7691 37.9202C32.9989 37.9259 33.2287 37.8799 33.447 37.7938C33.6595 37.7076 33.8606 37.5755 34.0215 37.4146C34.3604 37.0585 34.6131 36.6219 34.7453 36.1393L34.7912 35.9612C34.9578 35.3236 34.9406 34.8468 34.774 34.5079C34.5959 34.1689 34.2627 33.9966 33.7859 33.9966ZM26.6741 31.5092H24.8301L24.1809 33.9679H26.0249C26.6052 33.9679 27.0647 33.8702 27.3749 33.6691C27.7024 33.4566 27.9379 33.1234 28.0241 32.7328C28.139 32.3192 28.0873 32.0032 27.869 31.8021C27.6507 31.6126 27.2543 31.5092 26.6741 31.5092Z" fill="#072654"/>
<path d="M21.8198 27.0226L18.5799 39.3563H16.3567L18.5454 31.0036L15.1906 33.2153L15.788 31.0151L21.8198 27.0226Z" fill="#3395FF"/>
</g>
<defs>
<clipPath id="clip0_1_6067">
<rect width="70.5899" height="15.2405" fill="white" transform="translate(11.2498 27.0226)"/>
</clipPath>
</defs>
</svg>
