<svg width="93" height="67" viewBox="0 0 93 67" fill="none" xmlns="http://www.w3.org/2000/svg">
<path d="M1.96052 11.7672C1.96052 6.51914 6.21493 2.26472 11.463 2.26472H82.0529C87.3009 2.26472 91.5553 6.51913 91.5553 11.7672V55.9828C91.5553 61.2309 87.3009 65.4853 82.0529 65.4853H11.463C6.21493 65.4853 1.96052 61.2309 1.96052 55.9828V11.7672Z" fill="white"/>
<path d="M1.96052 11.7672C1.96052 6.51914 6.21493 2.26472 11.463 2.26472H82.0529C87.3009 2.26472 91.5553 6.51913 91.5553 11.7672V55.9828C91.5553 61.2309 87.3009 65.4853 82.0529 65.4853H11.463C6.21493 65.4853 1.96052 61.2309 1.96052 55.9828V11.7672Z" stroke="#E4E7EC" stroke-width="2.71499"/>
<path d="M57.1158 30.9624C55.9256 29.952 54.4886 29.4581 52.8275 29.4581C51.189 29.4581 49.752 29.9526 48.5612 30.9624C47.371 31.9509 46.7659 33.3268 46.7659 35.0894C46.7659 36.852 47.371 38.2266 48.5612 39.237C49.7513 40.2255 51.189 40.72 52.8275 40.72C54.4886 40.72 55.9256 40.2255 57.1158 39.237C58.3286 38.2266 58.9337 36.8513 58.9337 35.0894C58.9337 33.3274 58.328 31.9509 57.1158 30.9624ZM50.5832 37.3453C49.9555 36.7655 49.6392 36.0127 49.6392 35.0887C49.6392 34.1648 49.9528 33.4126 50.5832 32.8535C50.8755 32.5747 51.2252 32.3547 51.6109 32.207C51.9966 32.0593 52.4103 31.9868 52.8268 31.9942C53.2467 31.9868 53.664 32.0591 54.0535 32.2067C54.443 32.3544 54.7968 32.5744 55.0937 32.8535C55.7435 33.4126 56.0597 34.1642 56.0597 35.0887C56.0597 36.0133 55.7462 36.7648 55.0937 37.3453C54.4659 37.9037 53.7021 38.1833 52.8268 38.1833C52.4125 38.1895 52.001 38.1186 51.6159 37.9748C51.2309 37.831 50.8799 37.617 50.5832 37.3453ZM63.1793 40.4185V25.6709H60.3507V40.4185H63.1793ZM72.309 29.7589V35.6435C72.309 37.0613 71.5085 38.0015 69.9848 38.0015C68.435 38.0015 67.6558 37.0626 67.6558 35.6435V29.7589H64.8218V36.0948C64.8218 38.5494 66.4383 40.7194 69.9848 40.7194H70.0068C73.5312 40.7194 75.145 38.5011 75.145 36.0948V29.7589H72.309ZM43.7558 29.7589L40.9272 36.9798L38.0985 29.7589H35.0904L39.6042 40.4191H42.2541L46.7672 29.7589H43.7558ZM35.1038 34.7879C35.1038 33.2409 34.5881 31.9728 33.5774 30.9624C32.5667 29.952 31.2664 29.4581 29.672 29.4581C28.0335 29.4581 26.6405 29.9959 25.4957 31.0483C24.3723 32.102 23.8126 33.4339 23.8126 35.0887C23.8126 36.7435 24.3736 38.0981 25.4737 39.1505C26.5972 40.2041 27.9441 40.7194 29.5379 40.7194C31.9863 40.7194 33.7141 39.6877 34.7675 37.6029L32.6581 36.442C31.9636 37.7527 30.9516 38.3977 29.5826 38.3977C27.8994 38.3977 26.7093 37.3659 26.5291 35.7331H35.1031V34.7872L35.1038 34.7879ZM29.5806 31.5209C31.1744 31.5209 32.2304 32.3803 32.4993 33.7561H26.5278C26.9554 32.4881 28.1216 31.5209 29.5813 31.5209H29.5806ZM23.8119 40.4185L20.0166 34.0576C22.4176 33.2196 23.6078 31.7585 23.6078 29.6304C23.6104 27.0298 21.4536 25.3744 18.0192 25.3744H11.3079V40.4185H14.2713V34.3152H16.7863L20.4222 40.4191L23.8119 40.4185ZM18.0192 27.8672C19.7704 27.8672 20.6464 28.5335 20.6464 29.8442C20.6464 31.1549 19.7698 31.8212 18.0192 31.8212H14.2713V27.8672H18.0192ZM79.9404 40.7194C78.1198 40.7194 76.6434 39.3053 76.6434 37.5603V26.8787H79.472V29.7627H81.8977V31.9547H79.472V37.386C79.472 37.8975 79.905 38.3118 80.44 38.3118H81.8977V40.7194H79.9404Z" fill="black"/>
</svg>
