<svg width="93" height="67" viewBox="0 0 93 67" fill="none" xmlns="http://www.w3.org/2000/svg">
<path d="M2.01887 11.8316C2.01887 6.58356 6.27328 2.32915 11.5214 2.32915H82.1112C87.3593 2.32915 91.6137 6.58355 91.6137 11.8316V56.0472C91.6137 61.2953 87.3593 65.5497 82.1112 65.5497H11.5214C6.27328 65.5497 2.01887 61.2953 2.01887 56.0473V11.8316Z" fill="white"/>
<path d="M2.01887 11.8316C2.01887 6.58356 6.27328 2.32915 11.5214 2.32915H82.1112C87.3593 2.32915 91.6137 6.58355 91.6137 11.8316V56.0472C91.6137 61.2953 87.3593 65.5497 82.1112 65.5497H11.5214C6.27328 65.5497 2.01887 61.2953 2.01887 56.0473V11.8316Z" stroke="#E4E7EC" stroke-width="2.71499"/>
<g clip-path="url(#clip0_1_5973)">
<path d="M65.413 30.8833H68.0595C69.6576 30.8833 70.8442 32.1239 70.8442 33.6634C70.8442 35.2029 69.6592 36.4549 68.0498 36.4549H66.8536V38.6894H65.4146V30.8833H65.413ZM66.852 32.2311V35.1071H67.9533C68.8103 35.1071 69.394 34.4656 69.394 33.6634C69.394 32.8612 68.8119 32.2311 67.9533 32.2311H66.852Z" fill="black"/>
<path d="M71.2268 35.5667C71.2268 33.493 72.7301 32.3059 74.2962 32.3059C75.1113 32.3059 75.8413 32.6485 76.2867 33.1828V32.4342H77.716V38.6895H76.2867V37.8775C75.8316 38.4556 75.0904 38.8194 74.2753 38.8194C72.7832 38.8194 71.2268 37.6112 71.2268 35.5683V35.5667ZM76.3606 35.5456C76.3606 34.4868 75.5663 33.6212 74.5084 33.6212C73.4504 33.6212 72.6353 34.4657 72.6353 35.5456C72.6353 36.6255 73.4504 37.491 74.5084 37.491C75.5663 37.491 76.3606 36.6255 76.3606 35.5456Z" fill="black"/>
<path d="M80.829 38.3778L78.2886 32.4326H79.8128L81.538 36.6451L83.1683 32.4326H84.6717L80.9769 41.5753H79.5266L80.829 38.3778Z" fill="black"/>
<path d="M50.4184 31.101L50.5165 36.8318H50.4779L48.8154 31.101H46.1335V38.3274H47.9102L47.8105 32.3985H47.8507L49.6354 38.3274H52.2095V31.101H50.4184Z" fill="black"/>
<path d="M16.392 31.101L15.051 38.4021H17.0045L17.9934 31.7782L18.0336 31.7765L18.9982 38.4021H20.9389L19.6076 31.101H16.392Z" fill="black"/>
<path d="M27.3138 31.101L26.4214 36.684H26.3812L25.4905 31.101H22.5417L22.3826 38.4021H24.1914L24.2364 31.8382H24.2766L25.4841 38.4021H27.3186L28.5261 31.8399L28.5663 31.8382L28.6113 38.4021H30.4201L30.2609 31.101H27.3138Z" fill="black"/>
<path d="M12.0085 36.343C12.0793 36.52 12.0568 36.7457 12.023 36.8837C11.9635 37.1273 11.8011 37.3758 11.3188 37.3758C10.867 37.3758 10.592 37.1111 10.592 36.7132V36.0052H8.65137V36.5687C8.65137 38.1975 9.91995 38.6895 11.2786 38.6895C12.6372 38.6895 13.6614 38.2397 13.8334 37.0201C13.9218 36.3901 13.8559 35.9776 13.8254 35.8233C13.5199 34.2952 10.7769 33.8389 10.5727 32.9831C10.539 32.8353 10.547 32.6811 10.5647 32.5999C10.6161 32.366 10.7721 32.1094 11.2255 32.1094C11.6484 32.1094 11.8976 32.3725 11.8976 32.7704V33.2234H13.7016V32.7087C13.7016 31.1172 12.2867 30.8688 11.2641 30.8688C9.97944 30.8688 8.92791 31.2991 8.73658 32.4894C8.68352 32.8142 8.67709 33.1065 8.75266 33.4735C9.06619 34.9659 11.6355 35.3979 12.0069 36.3414" fill="black"/>
<path d="M35.5104 36.3283C35.5795 36.5037 35.5586 36.7262 35.5249 36.8626C35.467 37.1029 35.3046 37.3481 34.8271 37.3481C34.3785 37.3481 34.1068 37.0867 34.1068 36.6921V35.9922H32.187V36.5492C32.187 38.1617 33.4427 38.6489 34.7885 38.6489C36.1342 38.6489 37.1472 38.2039 37.3176 36.9958C37.4044 36.3722 37.3401 35.9629 37.3096 35.8103C37.0073 34.2968 34.2917 33.8454 34.0907 32.9993C34.0553 32.8532 34.065 32.7021 34.081 32.6209C34.1325 32.3887 34.2884 32.1354 34.7354 32.1354C35.1567 32.1354 35.4011 32.3952 35.4011 32.7898V33.2364H37.1874V32.7281C37.1874 31.1529 35.7869 30.9077 34.774 30.9077C33.5022 30.9077 32.462 31.3332 32.2722 32.5121C32.2192 32.8353 32.2127 33.1227 32.2883 33.4865C32.597 34.9642 35.1422 35.3913 35.5104 36.3267" fill="black"/>
<path d="M41.5785 37.3093C42.0818 37.3093 42.2361 36.9601 42.2715 36.7799C42.2876 36.7019 42.2892 36.5947 42.2892 36.5006V31.0994H44.1189V36.3349C44.1205 36.4697 44.1076 36.7441 44.1012 36.8156C43.9758 38.1781 42.9082 38.6198 41.5801 38.6198C40.2521 38.6198 39.1845 38.1781 39.0575 36.8156C39.051 36.7441 39.0365 36.4697 39.0414 36.3349V31.0994H40.8695V36.5006C40.8679 36.5947 40.8711 36.7003 40.8872 36.7799C40.9225 36.9601 41.0769 37.3093 41.5801 37.3093" fill="black"/>
<path d="M56.6549 37.2329C57.179 37.2329 57.3607 36.8984 57.3929 36.7035C57.4073 36.6207 57.4106 36.5184 57.4106 36.4258V35.3654H56.6693V34.3017H59.2306V36.2585C59.2306 36.3966 59.2258 36.4956 59.2049 36.7392C59.0859 38.0692 57.9444 38.5434 56.6629 38.5434C55.3815 38.5434 54.2415 38.0692 54.1209 36.7392C54.1 36.4973 54.0968 36.3966 54.0952 36.2585V33.1877C54.0952 33.0578 54.1113 32.8289 54.1258 32.7071C54.2865 31.343 55.3815 30.9029 56.6629 30.9029C57.9444 30.9029 59.0666 31.3381 59.2001 32.7071C59.2226 32.9393 59.2162 33.1877 59.2162 33.1877V33.4313H57.3929V33.0221C57.3929 33.0221 57.3929 32.8483 57.3704 32.7444C57.3382 32.5836 57.1999 32.215 56.6484 32.215C56.097 32.215 55.9683 32.5642 55.9281 32.7444C55.9072 32.8402 55.8992 32.9701 55.8992 33.0903V36.4274C55.8992 36.52 55.9024 36.6223 55.9153 36.7051C55.949 36.9 56.1323 37.2345 56.6549 37.2345" fill="black"/>
</g>
<defs>
<clipPath id="clip0_1_5973">
<rect width="76.0198" height="10.7064" fill="white" transform="translate(8.65137 30.8688)"/>
</clipPath>
</defs>
</svg>
