<svg width="93" height="67" viewBox="0 0 93 67" fill="none" xmlns="http://www.w3.org/2000/svg">
<path d="M1.84383 11.7672C1.84383 6.51914 6.09823 2.26472 11.3463 2.26472H81.9362C87.1842 2.26472 91.4386 6.51913 91.4386 11.7672V55.9828C91.4386 61.2309 87.1842 65.4853 81.9362 65.4853H11.3463C6.09823 65.4853 1.84383 61.2309 1.84383 55.9828V11.7672Z" fill="white"/>
<path d="M1.84383 11.7672C1.84383 6.51914 6.09823 2.26472 11.3463 2.26472H81.9362C87.1842 2.26472 91.4386 6.51913 91.4386 11.7672V55.9828C91.4386 61.2309 87.1842 65.4853 81.9362 65.4853H11.3463C6.09823 65.4853 1.84383 61.2309 1.84383 55.9828V11.7672Z" stroke="#E4E7EC" stroke-width="2.71499"/>
<path fill-rule="evenodd" clip-rule="evenodd" d="M58.7561 25.6342C58.7561 24.1167 59.944 22.8857 61.4067 22.8857C62.8719 22.8857 64.059 24.1167 64.059 25.6342C64.059 27.1526 62.8719 28.3808 61.4067 28.3808C59.944 28.3808 58.7561 27.1526 58.7561 25.6342ZM66.3771 25.1334L71.7532 24.1363V45.5268H66.3771V25.1334ZM74.2296 25.1334V45.5268H79.6091V24.1363L74.2296 25.1334ZM58.7191 29.8814V45.5268H64.0977V29.8814H58.7191ZM48.1908 36.7253C48.1908 32.13 50.7156 29.8181 55.6851 29.652C55.6851 29.652 56.5826 29.6163 57.1124 29.7332V34.3063C53.9622 34.4187 53.6142 35.5979 53.6142 38.3482V45.5268H48.1908V36.7253ZM41.0655 29.937L41.0655 29.9372C40.8729 30.4611 39.9965 32.8452 38.0296 35.3104V24.1363L32.4787 25.2744V45.5268H38.0296V39.2657C39.637 41.7651 40.4312 45.5268 40.4312 45.5268H47.0787C46.4215 42.6935 43.5452 37.4706 43.5452 37.4706C46.1277 34.0768 47.2605 30.4625 47.4414 29.8635H41.0928C41.0861 29.8811 41.077 29.9057 41.0655 29.937ZM20.9161 30.4741C20.9161 31.9425 22.4908 32.0487 23.1704 32.0942C28.1554 32.4406 31.1264 34.9694 31.1264 38.8605C31.1264 42.2936 28.4698 45.7562 22.5433 45.7562C19.7954 45.7562 17.4507 45.4759 15.3712 44.909V39.912C16.7598 40.5038 19.0477 41.1251 21.4045 41.1251C23.5555 41.1251 24.8347 40.3878 24.8347 39.1345C24.8347 37.6225 23.2833 37.524 22.6884 37.4862L22.682 37.4858C15.7399 36.9957 14.9922 32.7396 14.9922 30.9329C14.9922 27.7952 17.1405 24.1363 23.204 24.1363C26.7212 24.1363 28.6171 24.7049 30.2504 25.2967L30.3322 25.3226V30.1759L30.2711 30.1581C29.6155 29.8706 28.8454 29.5886 28.8454 29.5886C27.462 29.1592 25.5273 28.7022 24.0318 28.7022C23.1816 28.7022 20.9161 28.7022 20.9161 30.4741Z" fill="#862165"/>
</svg>
