<svg width="94" height="67" viewBox="0 0 94 67" fill="none" xmlns="http://www.w3.org/2000/svg">
<path d="M2.26088 11.7672C2.26088 6.51914 6.51529 2.26472 11.7634 2.26472H82.3532C87.6013 2.26472 91.8557 6.51913 91.8557 11.7672V55.9828C91.8557 61.2309 87.6013 65.4853 82.3532 65.4853H11.7634C6.51528 65.4853 2.26088 61.2309 2.26088 55.9828V11.7672Z" fill="white"/>
<path d="M2.26088 11.7672C2.26088 6.51914 6.51529 2.26472 11.7634 2.26472H82.3532C87.6013 2.26472 91.8557 6.51913 91.8557 11.7672V55.9828C91.8557 61.2309 87.6013 65.4853 82.3532 65.4853H11.7634C6.51528 65.4853 2.26088 61.2309 2.26088 55.9828V11.7672Z" stroke="#E4E7EC" stroke-width="2.71499"/>
<path fill-rule="evenodd" clip-rule="evenodd" d="M50.5014 23.2757L45.8122 24.3239V20.3638L50.5014 19.3349V23.2757ZM60.253 25.4693C58.4222 25.4693 57.2452 26.3623 56.5913 26.9835L56.3485 25.7799H52.2385V48.415L56.9089 47.3862L56.9276 41.8924C57.6002 42.3971 58.5903 43.1154 60.2343 43.1154C63.5783 43.1154 66.6235 40.32 66.6235 34.1661C66.6048 28.5365 63.5223 25.4693 60.253 25.4693ZM59.132 38.8446C58.0298 38.8446 57.3759 38.4369 56.9275 37.9322L56.9089 30.7301C57.3946 30.1671 58.0671 29.7789 59.132 29.7789C60.832 29.7789 62.009 31.759 62.009 34.302C62.009 36.9033 60.8507 38.8446 59.132 38.8446ZM81.3449 34.3603C81.3449 29.3906 79.0284 25.4693 74.6008 25.4693C70.1545 25.4693 67.4644 29.3906 67.4644 34.3214C67.4644 40.1646 70.6403 43.1154 75.1986 43.1154C77.4217 43.1154 79.1031 42.5912 80.3735 41.8535V37.971C79.1031 38.631 77.6459 39.0387 75.7964 39.0387C73.9843 39.0387 72.3777 38.3787 72.1722 36.088H81.3075C81.3075 35.981 81.3143 35.7379 81.322 35.4579C81.3325 35.0774 81.3449 34.6286 81.3449 34.3603ZM72.116 32.516C72.116 30.3224 73.405 29.41 74.582 29.41C75.7215 29.41 76.9359 30.3224 76.9359 32.516H72.116ZM45.8119 25.7994H50.5011V42.7854H45.8119V25.7994ZM40.4881 25.7993L40.787 27.2359C41.8892 25.1393 44.075 25.5664 44.6728 25.7993V30.2642C44.0937 30.0507 42.2255 29.7789 41.1233 31.2737V42.7854H36.4528V25.7993H40.4881ZM31.4458 21.5867L26.8874 22.5962L26.8687 38.1457C26.8687 41.0188 28.9424 43.1348 31.7073 43.1348C33.2392 43.1348 34.3602 42.8436 34.9767 42.4941V38.5534C34.3788 38.8057 31.4271 39.6987 31.4271 36.8257V29.9342H34.9767V25.7993H31.4271L31.4458 21.5867ZM20.4051 29.6818C19.4149 29.6818 18.8171 29.973 18.8171 30.7301C18.8171 31.5567 19.846 31.9204 21.1224 32.3715C23.2032 33.1069 25.942 34.0749 25.9536 37.6604C25.9536 41.1353 23.2821 43.1348 19.3962 43.1348C17.7896 43.1348 16.0335 42.8048 14.2961 42.0283V37.4081C15.8654 38.301 17.8456 38.9611 19.3962 38.9611C20.4424 38.9611 21.1897 38.6699 21.1897 37.7769C21.1897 36.8613 20.0744 36.4427 18.7279 35.9375C16.6773 35.168 14.0906 34.1973 14.0906 30.9631C14.0906 27.527 16.6126 25.4693 20.4051 25.4693C21.9557 25.4693 23.4876 25.7216 25.0382 26.3623V30.9242C23.6183 30.1283 21.8249 29.6818 20.4051 29.6818Z" fill="#6461FC"/>
</svg>
