<svg width="93" height="67" viewBox="0 0 93 67" fill="none" xmlns="http://www.w3.org/2000/svg">
<path d="M1.6689 11.7672C1.6689 6.51914 5.92331 2.26472 11.1714 2.26472H81.7612C87.0093 2.26472 91.2637 6.51913 91.2637 11.7672V55.9828C91.2637 61.2309 87.0093 65.4853 81.7612 65.4853H11.1714C5.9233 65.4853 1.6689 61.2309 1.6689 55.9828V11.7672Z" fill="white"/>
<path d="M1.6689 11.7672C1.6689 6.51914 5.92331 2.26472 11.1714 2.26472H81.7612C87.0093 2.26472 91.2637 6.51913 91.2637 11.7672V55.9828C91.2637 61.2309 87.0093 65.4853 81.7612 65.4853H11.1714C5.9233 65.4853 1.6689 61.2309 1.6689 55.9828V11.7672Z" stroke="#E4E7EC" stroke-width="2.71499"/>
<path fill-rule="evenodd" clip-rule="evenodd" d="M30.6026 14.8463L22.0664 32.9899C22.0339 33.0574 22.0236 33.1336 22.037 33.2074C22.0504 33.2813 22.0868 33.3488 22.1409 33.4002L45.195 55.7546C45.2604 55.8181 45.3477 55.8536 45.4384 55.8536C45.5291 55.8536 45.6163 55.8181 45.6818 55.7546L68.7359 33.4016C68.79 33.3502 68.8264 33.2827 68.8398 33.2088C68.8532 33.135 68.8429 33.0588 68.8104 32.9913L60.2742 14.8477C60.2467 14.7867 60.2024 14.7351 60.1466 14.699C60.0909 14.6628 60.026 14.6437 59.9598 14.6439H30.9198C30.8532 14.643 30.7879 14.6617 30.7316 14.6976C30.6753 14.7335 30.6305 14.7851 30.6026 14.8463Z" fill="#50AF95"/>
<path fill-rule="evenodd" clip-rule="evenodd" d="M48.4023 34.854C48.2368 34.8665 47.3817 34.9182 45.4742 34.9182C43.957 34.9182 42.8798 34.8721 42.5019 34.854C36.6387 34.593 32.2624 33.5602 32.2624 32.3236C32.2624 31.0871 36.6387 30.0557 42.5019 29.7905V33.8253C42.8853 33.8533 43.9832 33.9189 45.5004 33.9189C47.321 33.9189 48.2327 33.8421 48.3968 33.8267V29.7933C54.2476 30.0571 58.6143 31.0898 58.6143 32.3236C58.6143 33.5574 54.2489 34.5902 48.3968 34.8526L48.4023 34.854ZM48.4023 29.376V25.7654H56.5674V20.2595H34.3368V25.7654H42.5005V29.3746C35.865 29.683 30.8749 31.0131 30.8749 32.6069C30.8749 34.2008 35.865 35.5295 42.5005 35.8393V47.4093H48.4009V35.8351C55.0213 35.5267 60.0031 34.198 60.0031 32.6055C60.0031 31.0131 55.0255 29.6844 48.4009 29.3746L48.4023 29.376Z" fill="white"/>
</svg>
