<svg width="93" height="67" viewBox="0 0 93 67" fill="none" xmlns="http://www.w3.org/2000/svg">
<path d="M1.43574 11.7672C1.43574 6.51914 5.69015 2.26472 10.9382 2.26472H81.5281C86.7762 2.26472 91.0306 6.51913 91.0306 11.7672V55.9828C91.0306 61.2309 86.7762 65.4853 81.5281 65.4853H10.9382C5.69015 65.4853 1.43574 61.2309 1.43574 55.9828V11.7672Z" fill="white"/>
<path d="M1.43574 11.7672C1.43574 6.51914 5.69015 2.26472 10.9382 2.26472H81.5281C86.7762 2.26472 91.0306 6.51913 91.0306 11.7672V55.9828C91.0306 61.2309 86.7762 65.4853 81.5281 65.4853H10.9382C5.69015 65.4853 1.43574 61.2309 1.43574 55.9828V11.7672Z" stroke="#E4E7EC" stroke-width="2.71499"/>
<path d="M22.5409 28.3803C23.0175 29.1489 23.2323 29.9406 23.2323 30.9407C23.2323 34.1303 20.4438 38.274 18.1806 41.1836H13.0113L10.9381 29.0787L15.4644 28.6591L16.5605 37.2725C17.5847 35.6432 18.8486 33.0829 18.8486 31.3372C18.8486 30.3817 18.681 29.7309 18.419 29.1951L22.5409 28.3803Z" fill="#008CFF"/>
<path d="M28.407 33.7115C29.24 33.7115 31.3369 33.3395 31.3369 32.1757C31.3369 31.6169 30.9323 31.3381 30.4554 31.3381C29.6211 31.3381 28.5263 32.315 28.407 33.7115ZM28.3116 36.0163C28.3116 37.4373 29.1208 37.9948 30.1935 37.9948C31.3617 37.9948 32.4802 37.7161 33.934 36.9946L33.3865 40.6254C32.3621 41.1141 30.7658 41.4402 29.2164 41.4402C25.2859 41.4402 23.8793 39.1127 23.8793 36.2029C23.8793 32.4316 26.1674 28.4272 30.8849 28.4272C33.4822 28.4272 34.9345 29.8481 34.9345 31.8266C34.9347 35.0161 30.7423 35.9933 28.3116 36.0163Z" fill="#008CFF"/>
<path d="M47.9971 31.1746C47.9971 31.6401 47.9249 32.3153 47.8528 32.7565L46.4948 41.1372H42.0873L43.3263 33.4548C43.3497 33.2464 43.422 32.8269 43.422 32.5942C43.422 32.0353 43.0644 31.8959 42.6346 31.8959C42.0636 31.8959 41.4913 32.1517 41.1102 32.3385L39.7049 41.1373H35.2727L37.2976 28.59H41.1337L41.1822 29.5915C42.0872 29.0096 43.2789 28.3803 44.9696 28.3803C47.2099 28.3801 47.9971 29.4978 47.9971 31.1746Z" fill="#008CFF"/>
<path d="M61.0819 29.8008C62.3443 28.9171 63.5362 28.4272 65.1795 28.4272C67.4425 28.4272 68.2297 29.545 68.2297 31.2218C68.2297 31.6873 68.1576 32.3625 68.0858 32.8037L66.7291 41.1844H62.3205L63.5832 33.3396C63.6064 33.1299 63.6554 32.8741 63.6554 32.7118C63.6554 32.0826 63.2977 31.9431 62.8678 31.9431C62.3205 31.9431 61.7732 32.1758 61.3668 32.3856L59.9618 41.1845H55.5546L56.8169 33.3397C56.8401 33.13 56.8877 32.8742 56.8877 32.712C56.8877 32.0828 56.5297 31.9432 56.1015 31.9432C55.5294 31.9432 54.9583 32.199 54.5771 32.3858L53.1707 41.1846H48.74L50.7647 28.6373H54.5539L54.673 29.6848C55.5546 29.057 56.7451 28.4277 58.3414 28.4277C59.7236 28.4272 60.6283 29.0092 61.0819 29.8008Z" fill="#008CFF"/>
<path d="M76.9999 33.4553C76.9999 32.431 76.7375 31.7327 75.9519 31.7327C74.2127 31.7327 73.8553 34.7353 73.8553 36.2714C73.8553 37.4367 74.1892 38.1579 74.9747 38.1579C76.6187 38.1579 76.9999 34.9913 76.9999 33.4553ZM69.3762 36.086C69.3762 32.1291 71.5201 28.4266 76.4526 28.4266C80.1692 28.4266 81.5279 30.5688 81.5279 33.5256C81.5279 37.4366 79.4072 41.4867 74.3556 41.4867C70.6151 41.4867 69.3762 39.0888 69.3762 36.086Z" fill="#008CFF"/>
</svg>
