<svg width="93" height="67" viewBox="0 0 93 67" fill="none" xmlns="http://www.w3.org/2000/svg">
<path d="M1.55232 11.7672C1.55232 6.51913 5.80673 2.26472 11.0548 2.26472H81.6447C86.8927 2.26472 91.1471 6.51913 91.1471 11.7672V55.2071C91.1471 60.4552 86.8927 64.7096 81.6447 64.7096H11.0548C5.80673 64.7096 1.55232 60.4552 1.55232 55.2071V11.7672Z" fill="white"/>
<path d="M1.55232 11.7672C1.55232 6.51913 5.80673 2.26472 11.0548 2.26472H81.6447C86.8927 2.26472 91.1471 6.51913 91.1471 11.7672V55.2071C91.1471 60.4552 86.8927 64.7096 81.6447 64.7096H11.0548C5.80673 64.7096 1.55232 60.4552 1.55232 55.2071V11.7672Z" stroke="#E4E7EC" stroke-width="2.71499"/>
<path d="M41.4361 38.5258C41.2516 38.624 41.0439 38.6808 40.8231 38.6808C40.312 38.6808 39.8677 38.3845 39.6345 37.9459L39.5451 37.74L35.8239 29.1345C35.7838 29.041 35.7589 28.9351 35.7589 28.832C35.7589 28.4354 36.0641 28.1141 36.4404 28.1141C36.5931 28.1141 36.7344 28.1675 36.848 28.2565L41.2393 31.5515C41.56 31.7724 41.9434 31.9021 42.3554 31.9021C42.6014 31.9021 42.8358 31.8539 43.0545 31.77L63.705 22.0842C60.0034 17.4869 53.9073 14.4822 47.0087 14.4822C35.7197 14.4822 26.569 22.5188 26.569 32.4331C26.569 37.8415 29.3222 42.7104 33.6315 46.0013C33.9771 46.2614 34.2035 46.6888 34.2035 47.1711C34.2035 47.3306 34.1711 47.4761 34.1315 47.6282C33.7873 48.9812 33.2365 51.1479 33.2109 51.2495C33.1679 51.4192 33.1008 51.5967 33.1008 51.7742C33.1008 52.1708 33.4057 52.4921 33.7826 52.4921C33.9303 52.4921 34.0512 52.4341 34.1759 52.3585L38.6507 49.6358C38.9873 49.4314 39.3436 49.3043 39.7364 49.3043C39.9452 49.3043 40.147 49.3384 40.3368 49.3996C42.4243 50.0324 44.6766 50.384 47.0088 50.384C58.2971 50.384 67.4491 42.3469 67.4491 32.4331C67.4491 29.4302 66.6047 26.6021 65.1206 24.1144L41.5859 38.4348L41.4361 38.5258Z" fill="#1AAD19"/>
</svg>
