<svg width="93" height="67" viewBox="0 0 93 67" fill="none" xmlns="http://www.w3.org/2000/svg">
<path d="M1.61061 11.7672C1.61061 6.51914 5.86502 2.26472 11.1131 2.26472H81.7029C86.951 2.26472 91.2054 6.51913 91.2054 11.7672V55.9828C91.2054 61.2309 86.951 65.4853 81.7029 65.4853H11.1131C5.86502 65.4853 1.61061 61.2309 1.61061 55.9828V11.7672Z" fill="white"/>
<path d="M1.61061 11.7672C1.61061 6.51914 5.86502 2.26472 11.1131 2.26472H81.7029C86.951 2.26472 91.2054 6.51913 91.2054 11.7672V55.9828C91.2054 61.2309 86.951 65.4853 81.7029 65.4853H11.1131C5.86502 65.4853 1.61061 61.2309 1.61061 55.9828V11.7672Z" stroke="#E4E7EC" stroke-width="2.71499"/>
<path d="M13.3365 46.6115V38.9431H11.1131V36.5698H18.2643V38.9431H16.041V46.6115H13.3365ZM19.5861 46.6115V36.5698H22.4127C23.5198 36.5698 24.2913 36.6213 24.7274 36.7244C25.1635 36.8271 25.5398 36.9998 25.856 37.242C26.2131 37.5162 26.4876 37.8661 26.6796 38.2913C26.8716 38.7167 26.9678 39.1856 26.9678 39.6975C26.9678 40.4749 26.7791 41.1071 26.4018 41.594C26.0243 42.0811 25.4742 42.4044 24.7511 42.5648L27.4556 46.6113H24.3987L22.121 42.681V46.6113H19.5861V46.6115ZM22.1212 41.3164H22.6227C23.2058 41.3164 23.6315 41.2159 23.9005 41.0145C24.1693 40.8135 24.3038 40.4979 24.3038 40.0678C24.3038 39.5647 24.1786 39.2072 23.9277 38.9945C23.6771 38.7819 23.2555 38.6755 22.6635 38.6755H22.1212V41.3164Z" fill="#00AFD8"/>
<path d="M27.3215 46.6117L30.7446 36.57H34.1339L37.5636 46.6117H34.8725L34.3709 44.8146H30.5276L30.0125 46.6117H27.3215ZM31.1106 42.8598H33.8016L32.7917 39.5468C32.7601 39.4464 32.7172 39.2839 32.663 39.0599C32.6087 38.836 32.5388 38.548 32.4529 38.1957C32.3969 38.4316 32.3393 38.6671 32.2801 38.9023C32.2258 39.118 32.1682 39.3329 32.1072 39.5468L31.1106 42.8598ZM38.5126 46.6117V36.57H41.1221L44.8705 41.7349C44.9429 41.8402 45.0617 42.0515 45.2264 42.3693C45.3912 42.6871 45.5734 43.0657 45.7722 43.5046C45.723 43.1353 45.6834 42.7648 45.6537 42.3933C45.6303 42.1059 45.6179 41.8176 45.6163 41.5292V36.57H48.2125V46.6117H45.6163L41.8679 41.4265C41.791 41.3212 41.6699 41.1099 41.5053 40.7919C41.3404 40.4741 41.1607 40.1002 40.9662 39.6705C41.0205 40.0913 41.06 40.4636 41.0849 40.7885C41.1081 41.076 41.1205 41.3642 41.1221 41.6527V46.6117H38.5126ZM50.7814 43.3675C51.1838 43.8295 51.58 44.1745 51.971 44.4032C52.3618 44.632 52.7517 44.7462 53.1405 44.7462C53.502 44.7462 53.799 44.6479 54.0317 44.4511C54.2645 44.2546 54.3808 44.0052 54.3808 43.7035C54.3808 43.3698 54.2801 43.1125 54.0793 42.9321C53.8779 42.7513 53.4227 42.5651 52.7133 42.3729C51.7419 42.108 51.0547 41.7623 50.6527 41.3371C50.2503 40.9119 50.0495 40.329 50.0495 39.5878C50.0495 38.6276 50.3669 37.8448 51.002 37.2388C51.6367 36.633 52.4602 36.3299 53.4726 36.3299C54.0192 36.3299 54.5378 36.4043 55.0281 36.5528C55.5185 36.7014 55.9828 36.9266 56.421 37.2284L55.5737 39.1969C55.2665 38.932 54.9511 38.7316 54.6282 38.5966C54.305 38.462 53.9853 38.3944 53.6691 38.3944C53.3439 38.3944 53.0794 38.4735 52.876 38.6311C52.6727 38.7887 52.571 38.9911 52.571 39.238C52.571 39.4893 52.6602 39.6909 52.8388 39.8416C53.0175 39.9923 53.3621 40.1366 53.8724 40.2739L53.9943 40.308C55.0969 40.61 55.8223 40.9414 56.1703 41.3026C56.405 41.5498 56.5838 41.8458 56.7057 42.1909C56.8276 42.5362 56.8888 42.9192 56.8888 43.3397C56.8888 44.4056 56.5432 45.2617 55.8515 45.9089C55.1602 46.5556 54.2384 46.8791 53.0862 46.8791C52.3949 46.8791 51.7656 46.7602 51.1983 46.5225C50.631 46.2848 50.0857 45.9121 49.5611 45.4046L50.7814 43.3675ZM58.407 46.6117V36.57H64.4872V38.7718H61.0437V40.514H64.2907V42.6679H61.0437V46.6117H58.407ZM65.9581 46.6117V36.57H72.0383V38.7718H68.595V40.514H71.8419V42.6679H68.595V44.362H72.0383V46.6115H65.9581V46.6117ZM73.8277 46.6117V36.57H76.6545C77.7617 36.57 78.5331 36.6215 78.9692 36.7246C79.4052 36.8273 79.7816 37 80.0979 37.2422C80.4551 37.5164 80.7292 37.8663 80.9215 38.2915C81.1135 38.7169 81.2097 39.1858 81.2097 39.6977C81.2097 40.4751 81.0209 41.1073 80.6437 41.5942C80.2662 42.0813 79.7163 42.4046 78.9932 42.565L81.6976 46.6115H78.6406L76.363 42.6812V46.6115H73.8277V46.6117ZM76.363 41.3166H76.8647C77.4475 41.3166 77.8734 41.2161 78.1421 41.0147C78.4109 40.8137 78.5454 40.4981 78.5454 40.068C78.5454 39.5649 78.42 39.2074 78.1693 38.9947C77.9187 38.7821 77.4971 38.6757 76.9052 38.6757H76.363V41.3166Z" fill="#00AFD8"/>
<path d="M42.1306 20.245L43.9319 27.1407C44.0169 27.4512 44.0952 27.7747 44.167 28.1116C44.2388 28.4485 44.3138 28.8348 44.3922 29.2707C44.4902 28.7554 44.5734 28.3312 44.6418 27.9975C44.7103 27.664 44.7772 27.3782 44.8425 27.1407L46.5264 20.245H50.4724L46.4189 34.7497H42.7965L41.0242 28.5574C40.9588 28.3393 40.8512 27.9134 40.7012 27.2794C40.6357 26.9955 40.5836 26.774 40.5446 26.6156C40.5118 26.7543 40.4662 26.9492 40.4075 27.2001C40.2574 27.8408 40.1432 28.2934 40.0649 28.5574L38.322 34.7497H34.6896L30.6459 20.245H34.5916L36.2364 27.1802C36.3147 27.537 36.3915 27.8936 36.4665 28.2503C36.5414 28.6069 36.6117 28.9735 36.677 29.3499C36.7387 29.0589 36.8023 28.7682 36.868 28.478C36.9672 28.0445 37.07 27.6118 37.1764 27.18L38.978 20.2449H42.1306V20.245ZM51.9215 34.7497V20.245H55.8673V34.7497H51.9215ZM59.0199 34.7497V20.245H63.1027C64.7016 20.245 65.8162 20.3192 66.4462 20.4679C67.0761 20.6164 67.6194 20.8659 68.0765 21.2158C68.5921 21.6121 68.9886 22.1174 69.2661 22.7317C69.5435 23.346 69.6821 24.0231 69.6821 24.7628C69.6821 25.8857 69.4096 26.7987 68.8647 27.5022C68.3196 28.2057 67.525 28.6728 66.4807 28.9041L70.3873 34.7497H65.9715L62.6818 29.0727V34.7499H59.0199V34.7497ZM62.6818 27.1011H63.4062C64.2483 27.1011 64.8634 26.9558 65.2519 26.6653C65.6403 26.3747 65.8344 25.9189 65.8344 25.298C65.8344 24.5715 65.6535 24.0546 65.291 23.7474C64.9287 23.4404 64.3201 23.2867 63.4648 23.2867H62.6818V27.1011ZM71.8754 34.7497V20.245H80.658V23.4254H75.6842V25.942H80.374V29.0529H75.6842V31.5001H80.658V34.7497H71.8754Z" fill="#006E90"/>
<path d="M11.2316 20.1384H29.1152V23.0105H11.2316V20.1384Z" fill="url(#paint0_linear_1_6082)"/>
<path d="M11.2316 25.7132H29.1152V28.5853H11.2316V25.7132Z" fill="url(#paint1_linear_1_6082)"/>
<path d="M11.2316 31.7949H29.1152V34.6669H11.2316V31.7949Z" fill="url(#paint2_linear_1_6082)"/>
<defs>
<linearGradient id="paint0_linear_1_6082" x1="11.2316" y1="21.5745" x2="29.1152" y2="21.5745" gradientUnits="userSpaceOnUse">
<stop stop-color="#41E700" stop-opacity="0"/>
<stop offset="0.736" stop-color="#3ACD00"/>
<stop offset="0.781" stop-color="#36BE00"/>
<stop offset="0.926" stop-color="#299100"/>
<stop offset="1" stop-color="#248000"/>
</linearGradient>
<linearGradient id="paint1_linear_1_6082" x1="11.2316" y1="27.1492" x2="29.1152" y2="27.1492" gradientUnits="userSpaceOnUse">
<stop stop-color="#41E700" stop-opacity="0"/>
<stop offset="0.736" stop-color="#3ACD00"/>
<stop offset="0.781" stop-color="#36BE00"/>
<stop offset="0.926" stop-color="#299100"/>
<stop offset="1" stop-color="#248000"/>
</linearGradient>
<linearGradient id="paint2_linear_1_6082" x1="11.2316" y1="33.2309" x2="29.1152" y2="33.2309" gradientUnits="userSpaceOnUse">
<stop stop-color="#41E700" stop-opacity="0"/>
<stop offset="0.736" stop-color="#3ACD00"/>
<stop offset="0.781" stop-color="#36BE00"/>
<stop offset="0.926" stop-color="#299100"/>
<stop offset="1" stop-color="#248000"/>
</linearGradient>
</defs>
</svg>
