<svg width="94" height="67" viewBox="0 0 94 67" fill="none" xmlns="http://www.w3.org/2000/svg">
<path d="M2.31917 11.7672C2.31917 6.51914 6.57357 2.26472 11.8216 2.26472H82.4115C87.6596 2.26472 91.914 6.51913 91.914 11.7672V55.9828C91.914 61.2309 87.6596 65.4853 82.4115 65.4853H11.8216C6.57357 65.4853 2.31917 61.2309 2.31917 55.9828V11.7672Z" fill="white"/>
<path d="M2.31917 11.7672C2.31917 6.51914 6.57357 2.26472 11.8216 2.26472H82.4115C87.6596 2.26472 91.914 6.51913 91.914 11.7672V55.9828C91.914 61.2309 87.6596 65.4853 82.4115 65.4853H11.8216C6.57357 65.4853 2.31917 61.2309 2.31917 55.9828V11.7672Z" stroke="#E4E7EC" stroke-width="2.71499"/>
<path d="M82.4115 32.7014C82.4115 28.5518 79.5545 25.6332 75.5494 25.6332C70.4507 25.6332 67.0333 29.3817 67.0333 34.7348C67.0333 38.9121 69.9176 41.803 73.9911 41.803C77.6955 41.803 80.4567 39.991 81.5913 37.1001H77.4768C76.93 37.9992 75.7681 38.5663 74.3465 38.5663C72.1594 38.5663 70.7924 37.1001 70.6694 35.0252H82.1791C82.3295 34.2368 82.4115 33.559 82.4115 32.7014ZM70.9838 32.2173C71.3529 30.3085 73.1846 28.7869 75.399 28.7869C77.3128 28.7869 78.7617 30.1978 78.7617 32.2173H70.9838Z" fill="#2E4369"/>
<path d="M55.9753 41.4294L56.7135 37.4457C58.9689 37.9022 59.3107 36.6158 59.8984 33.5174L60.1855 31.982C61.0057 27.6526 62.6597 25.4947 67.3893 26.0757L66.6512 30.0594C64.3957 29.6029 63.9993 31.3319 63.4935 34.0154L63.2065 35.5507C62.3863 39.9355 60.6776 42.0104 55.9753 41.4294Z" fill="#2E4369"/>
<path d="M50.453 41.4437L53.2416 26.0069H56.9187L54.1438 41.4437H50.453Z" fill="#2E4369"/>
<path d="M29.3872 26.0069H32.9549L34.1168 37.1695L38.7918 26.0069H42.3322L43.5761 37.2802L48.087 26.0069H51.6411L45.1754 41.4437H41.1292L39.817 30.8205L35.3471 41.4437H31.4376L29.3872 26.0069Z" fill="#2E4369"/>
<path d="M16.0592 30.1003L11.8217 34.1946H19.0255L19.7773 32.4103H16.1276L18.4104 30.1003L17.0844 27.7903H23.2767L17.5629 41.4427H19.709L26.1746 26.006H13.6807L16.0592 30.1003Z" fill="#2E4369"/>
</svg>
