<svg width="93" height="67" viewBox="0 0 93 67" fill="none" xmlns="http://www.w3.org/2000/svg">
<path d="M1.37746 11.7672C1.37746 6.51914 5.63186 2.26472 10.8799 2.26472H81.4698C86.7179 2.26472 90.9723 6.51913 90.9723 11.7672V55.9828C90.9723 61.2309 86.7179 65.4853 81.4698 65.4853H10.8799C5.63186 65.4853 1.37746 61.2309 1.37746 55.9828V11.7672Z" fill="white"/>
<path d="M1.37746 11.7672C1.37746 6.51914 5.63186 2.26472 10.8799 2.26472H81.4698C86.7179 2.26472 90.9723 6.51913 90.9723 11.7672V55.9828C90.9723 61.2309 86.7179 65.4853 81.4698 65.4853H10.8799C5.63186 65.4853 1.37746 61.2309 1.37746 55.9828V11.7672Z" stroke="#E4E7EC" stroke-width="2.71499"/>
<path d="M17.7525 24.164L11.2995 24.1039L11.2995 28.436H21.9939L10.88 42.8514V46.5174H17.7525V50.7397H21.8761V46.5174H28.8861C28.945 46.3485 28.9657 45.893 28.5926 45.4758C27.9741 44.7803 27.4822 44.0535 27.0305 43.1395C26.8243 42.7322 26.6678 42.2443 26.6089 42.2046C25.2284 42.1406 17.2868 42.1572 17.2911 42.1063L28.4149 27.6025V24.164H21.8761V19.892H17.7525V24.164Z" fill="#6C1CD3"/>
<path d="M47.53 22.1476C47.4318 22.1873 47.4023 24.3829 47.4023 32.6984C47.4023 43.9347 47.3925 43.746 47.8834 44.7096C48.3252 45.574 49.4052 46.3489 50.6128 46.6668C51.2804 46.8456 53.244 46.8655 54 46.7065C54.972 46.4979 55.1585 46.1999 54.7756 45.4349C54.5302 44.958 54.2062 43.9149 54.1276 43.3386C54.0196 42.6531 53.8822 42.5438 53.0575 42.5637C52.6648 42.5736 52.2917 42.5438 52.223 42.5041C51.8204 42.2458 51.8204 42.1762 51.8204 32.1122C51.8204 25.6446 51.791 22.3959 51.7222 22.2668C51.6241 22.088 51.4964 22.078 49.631 22.088C48.5412 22.088 47.5889 22.1178 47.53 22.1476Z" fill="#6C1CD3"/>
<path d="M56.5336 22.1774C56.406 22.2569 56.3864 23.5285 56.3864 32.6289C56.3864 42.4346 56.3962 43.0307 56.5729 43.7162C56.9067 45.0673 57.6627 45.8919 59.0961 46.4979C59.6459 46.7264 59.8914 46.7662 61.0008 46.796C62.4833 46.8357 63.2393 46.7264 63.9953 46.339C64.7415 45.9714 64.7611 45.7131 64.1229 44.7693C63.8677 44.3917 63.4749 43.746 63.2589 43.3387L62.8662 42.5935L62.1495 42.5836C61.2561 42.5637 61.1677 42.524 61.0008 42.0968C60.8732 41.8087 60.8535 40.3284 60.8535 32.1123C60.8535 25.6447 60.8241 22.396 60.7554 22.2668C60.6572 22.088 60.5295 22.0781 58.6641 22.0781C57.5743 22.0781 56.6122 22.1277 56.5336 22.1774Z" fill="#6C1CD3"/>
<path d="M35.1798 28.3863C35.1307 28.4061 34.7478 28.4955 34.3452 28.585C31.822 29.1711 29.5933 31.1283 28.6508 33.612C28.1304 34.983 27.9439 36.046 27.9341 37.6257C27.9243 39.8412 28.3661 41.4705 29.3773 43.0203C30.5162 44.7589 32.1853 45.9412 34.3452 46.5372C35.0816 46.7359 35.4056 46.7657 37.0943 46.7657C38.7633 46.7657 39.1069 46.7359 39.804 46.5472C41.532 46.0604 43.0047 45.2556 44.1927 44.1131C44.9486 43.3978 44.9388 43.1991 44.173 42.603C43.8588 42.3547 43.2894 41.8182 42.9163 41.4009C42.4451 40.8942 42.1603 40.6558 42.0131 40.6558C41.8756 40.6558 41.5614 40.8545 41.2571 41.1526C40.2066 42.1162 38.8811 42.5732 37.1434 42.5633C35.5528 42.5534 34.3943 42.1361 33.658 41.2817C33.2849 40.8545 32.8136 39.8809 32.7154 39.3345L32.6565 38.9669H38.7731C42.1407 38.9669 44.9585 38.9271 45.0272 38.8775C45.3512 38.6688 45.4297 37.2283 45.1941 35.6586C44.6345 31.9032 42.4156 29.3797 38.9302 28.5353C38.3117 28.3863 37.8012 28.3366 36.7015 28.3465C35.9161 28.3465 35.2387 28.3664 35.1798 28.3863ZM37.8012 32.2211C38.5179 32.3701 39.4015 32.8669 39.8138 33.3438C40.1967 33.7809 40.5895 34.5657 40.6876 35.0724L40.7564 35.3903H36.7506H32.7547L32.8234 35.0724C33.118 33.7312 34.2569 32.6086 35.6707 32.2509C36.299 32.092 37.1434 32.082 37.8012 32.2211Z" fill="#6C1CD3"/>
<path d="M70.8688 28.4755C67.3834 29.2604 65.0271 31.7441 64.2907 35.41C63.8489 37.5758 64.0944 40.0993 64.9289 41.9074C66.0678 44.411 68.1394 46.0304 70.967 46.6166C71.8604 46.8053 72.2138 46.8252 73.6178 46.7855C74.8058 46.7457 75.444 46.6762 75.9938 46.5272C77.6726 46.0801 79.1453 45.2654 80.2744 44.1726C81.1384 43.3281 81.1384 43.2884 80.2057 42.5035C79.7737 42.1459 79.1944 41.5796 78.9195 41.2517C78.2814 40.5066 78.1144 40.4967 77.3977 41.1524C76.3276 42.1359 75.0512 42.5731 73.2742 42.5631C70.7804 42.5532 69.3274 41.4703 68.8561 39.2846L68.7874 39.0268H81.2267C81.6489 38.7188 81.4918 35.4597 80.9813 33.9496C80.8831 33.6516 80.618 33.0555 80.402 32.6382C79.2533 30.4128 77.4174 29.0319 74.8647 28.4854C74.0498 28.3066 71.6444 28.3066 70.8688 28.4755ZM73.932 32.221C74.5996 32.37 75.2869 32.7177 75.7778 33.1648C76.1901 33.5522 76.8577 34.7742 76.8577 35.1517V35.3902H68.8855L68.9543 35.112C69.4648 32.9859 71.6248 31.7242 73.932 32.221Z" fill="#6C1CD3"/>
</svg>
